<svg width="351" height="123" viewBox="0 0 351 123" fill="none" xmlns="http://www.w3.org/2000/svg">
<rect width="351" height="123" rx="19" fill="#FFEAC5"/>
<path d="M32.0455 32.8182H40.4545L60.2273 81.1136H60.9091L80.6818 32.8182H89.0909V91H82.5V46.7955H81.9318L63.75 91H57.3864L39.2045 46.7955H38.6364V91H32.0455V32.8182ZM120.604 91.9091C116.399 91.9091 112.772 90.9811 109.723 89.125C106.693 87.25 104.354 84.6364 102.706 81.2841C101.077 77.9129 100.263 73.9924 100.263 69.5227C100.263 65.053 101.077 61.1136 102.706 57.7045C104.354 54.2765 106.645 51.6061 109.581 49.6932C112.536 47.7614 115.982 46.7955 119.922 46.7955C122.195 46.7955 124.439 47.1742 126.655 47.9318C128.871 48.6894 130.888 49.9205 132.706 51.625C134.524 53.3106 135.973 55.5455 137.053 58.3295C138.132 61.1136 138.672 64.5417 138.672 68.6136V71.4545H105.036V65.6591H131.854C131.854 63.197 131.361 61 130.376 59.0682C129.411 57.1364 128.028 55.6117 126.229 54.4943C124.448 53.3769 122.346 52.8182 119.922 52.8182C117.251 52.8182 114.941 53.4811 112.99 54.8068C111.058 56.1136 109.571 57.8182 108.53 59.9205C107.488 62.0227 106.967 64.2765 106.967 66.6818V70.5455C106.967 73.8409 107.536 76.6345 108.672 78.9261C109.827 81.1989 111.428 82.9318 113.473 84.125C115.518 85.2992 117.895 85.8864 120.604 85.8864C122.365 85.8864 123.956 85.6402 125.376 85.1477C126.816 84.6364 128.056 83.8788 129.098 82.875C130.14 81.8523 130.945 80.5833 131.513 79.0682L137.99 80.8864C137.308 83.0833 136.162 85.0152 134.553 86.6818C132.943 88.3295 130.954 89.6174 128.587 90.5455C126.219 91.4545 123.558 91.9091 120.604 91.9091ZM165.348 91.9091C161.712 91.9091 158.501 90.9905 155.717 89.1534C152.933 87.2973 150.755 84.6837 149.183 81.3125C147.611 77.9223 146.825 73.9167 146.825 69.2955C146.825 64.7121 147.611 60.7348 149.183 57.3636C150.755 53.9924 152.943 51.3883 155.746 49.5511C158.549 47.714 161.787 46.7955 165.462 46.7955C168.303 46.7955 170.547 47.2689 172.195 48.2159C173.861 49.1439 175.13 50.2045 176.001 51.3977C176.892 52.572 177.583 53.5379 178.075 54.2955H178.643V32.8182H185.348V91H178.871V84.2955H178.075C177.583 85.0909 176.882 86.0947 175.973 87.3068C175.064 88.5 173.767 89.5701 172.081 90.517C170.395 91.4451 168.151 91.9091 165.348 91.9091ZM166.257 85.8864C168.946 85.8864 171.219 85.1856 173.075 83.7841C174.931 82.3636 176.342 80.4034 177.308 77.9034C178.274 75.3845 178.757 72.4773 178.757 69.1818C178.757 65.9242 178.284 63.0739 177.337 60.6307C176.39 58.1686 174.988 56.2557 173.132 54.892C171.276 53.5095 168.984 52.8182 166.257 52.8182C163.416 52.8182 161.049 53.5473 159.155 55.0057C157.28 56.4451 155.869 58.4053 154.922 60.8864C153.994 63.3485 153.53 66.1136 153.53 69.1818C153.53 72.2879 154.003 75.1098 154.95 77.6477C155.916 80.1667 157.337 82.1742 159.212 83.6705C161.106 85.1477 163.454 85.8864 166.257 85.8864ZM198.558 91V47.3636H205.263V91H198.558ZM201.967 40.0909C200.661 40.0909 199.534 39.6458 198.587 38.7557C197.659 37.8655 197.195 36.7955 197.195 35.5455C197.195 34.2955 197.659 33.2254 198.587 32.3352C199.534 31.4451 200.661 31 201.967 31C203.274 31 204.392 31.4451 205.32 32.3352C206.267 33.2254 206.74 34.2955 206.74 35.5455C206.74 36.7955 206.267 37.8655 205.32 38.7557C204.392 39.6458 203.274 40.0909 201.967 40.0909ZM245.043 73.1591V47.3636H251.747V91H245.043V83.6136H244.588C243.565 85.8295 241.974 87.714 239.815 89.267C237.656 90.8011 234.929 91.5682 231.634 91.5682C228.906 91.5682 226.482 90.9716 224.361 89.7784C222.24 88.5663 220.573 86.7481 219.361 84.3239C218.149 81.8807 217.543 78.803 217.543 75.0909V47.3636H224.247V74.6364C224.247 77.8182 225.137 80.3561 226.918 82.25C228.717 84.1439 231.009 85.0909 233.793 85.0909C235.459 85.0909 237.154 84.6648 238.878 83.8125C240.62 82.9602 242.079 81.6534 243.253 79.892C244.446 78.1307 245.043 75.8864 245.043 73.1591ZM264.027 91V47.3636H270.504V54.1818H271.072C271.982 51.8523 273.449 50.0436 275.476 48.7557C277.502 47.4489 279.936 46.7955 282.777 46.7955C285.656 46.7955 288.052 47.4489 289.964 48.7557C291.896 50.0436 293.402 51.8523 294.482 54.1818H294.936C296.054 51.928 297.73 50.1383 299.964 48.8125C302.199 47.4678 304.879 46.7955 308.004 46.7955C311.906 46.7955 315.097 48.017 317.578 50.4602C320.059 52.8845 321.3 56.6629 321.3 61.7955V91H314.595V61.7955C314.595 58.5758 313.714 56.2746 311.953 54.892C310.192 53.5095 308.118 52.8182 305.732 52.8182C302.663 52.8182 300.286 53.7462 298.601 55.6023C296.915 57.4394 296.072 59.7689 296.072 62.5909V91H289.254V61.1136C289.254 58.6326 288.449 56.6345 286.839 55.1193C285.23 53.5852 283.156 52.8182 280.618 52.8182C278.875 52.8182 277.247 53.2822 275.732 54.2102C274.235 55.1383 273.023 56.4261 272.095 58.0739C271.186 59.7027 270.732 61.5871 270.732 63.7273V91H264.027Z" fill="#716035"/>
</svg>
