<svg width="194" height="185" viewBox="0 0 194 185" fill="none" xmlns="http://www.w3.org/2000/svg">
<g filter="url(#filter0_f_22_46)">
<path fill-rule="evenodd" clip-rule="evenodd" d="M48.3488 4.14737C31.5962 2.51124 16.697 14.6862 15.0704 31.3408L4.14482 143.21C2.51825 159.864 14.7803 174.692 31.5329 176.328L71.1418 180.197C81.2119 178.094 94.7481 172.662 115.503 156.05C129.617 144.752 140.952 134.715 153.081 123.975C160.178 117.691 167.547 111.167 175.904 104.008C180.677 99.2842 183.618 93.0341 185.564 86.006L189.242 48.3512C190.868 31.6965 178.606 16.8689 161.854 15.2328L48.3488 4.14737Z" fill="black" fill-opacity="0.07"/>
</g>
<path d="M8.16403 138.256L17.1396 46.3542L18.2128 35.3659L185.399 51.694L182.862 77.6664C180.618 100.642 173.456 103.472 170.453 106.708L105.26 160.345C91.4174 173.112 76.1589 177.673 68.174 176.892L38.8973 174.031C13.8614 171.411 5.73089 158.047 8.16403 138.256Z" fill="white"/>
<path d="M39.4286 174.085C39.2507 174.068 39.0736 174.05 38.8973 174.031M38.8973 174.031C13.8614 171.411 5.73089 158.047 8.16403 138.256L17.1396 46.3542L18.2128 35.3659L185.399 51.694L182.862 77.6664C180.618 100.642 173.456 103.472 170.453 106.708L105.26 160.345C91.4174 173.112 76.1589 177.673 68.174 176.892L38.8973 174.031Z" stroke="url(#paint0_linear_22_46)"/>
<path fill-rule="evenodd" clip-rule="evenodd" d="M50.6649 6.38309C34.1748 4.77259 19.5014 16.8349 17.8909 33.325L16.9675 42.78L185.167 59.2071L186.091 49.7521C187.701 33.262 175.639 18.5886 159.149 16.9781L50.6649 6.38309Z" fill="#FFC21B"/>
<path d="M22.8282 59.9309L169.132 74.2196M21.479 78.8895L167.783 93.1782M20.1298 97.8481L162.95 111.797M20.6274 97.8967L160.96 111.602M19.2782 116.855L138.71 128.52M19.7758 116.904L135.724 128.228M18.4266 135.863L117.953 145.583L18.9242 135.911M17.575 154.87L101.177 163.035" stroke="#F8F8F8"/>
<path d="M42.3408 110.097C42.4732 107.559 42.6472 105.023 42.8628 102.489C43.1222 99.9154 43.3805 97.3628 43.6377 94.8311C43.8971 92.2578 44.1138 89.7031 44.2878 87.1671C44.5056 84.5916 44.639 82.0326 44.6882 79.49C44.8369 79.0388 45.0831 78.7179 45.4269 78.5272C45.7728 78.2949 46.1746 78.1907 46.6323 78.2146C47.5061 78.2601 48.1632 78.4613 48.6035 78.8181C49.046 79.1332 49.3572 79.5667 49.5371 80.1184C49.7169 80.6702 49.8103 81.2801 49.8172 81.948C49.824 82.6159 49.8309 83.2839 49.8378 83.9518C50.2894 84.8933 50.8253 85.8183 51.4455 86.7268C52.1094 87.5959 52.6891 88.4815 53.1844 89.3835C53.1823 89.4251 53.1976 89.5302 53.2306 89.6988C53.3073 89.828 53.3664 89.8937 53.4081 89.8958C53.6382 90.2833 53.9242 90.7989 54.2662 91.4426C54.6519 92.0469 55.0168 92.65 55.3609 93.2521C55.7072 93.8126 55.9943 94.3074 56.2222 94.7365C56.4918 95.1678 56.6266 95.3834 56.6266 95.3834L56.86 95.7085L60.2066 101.14C60.3644 101.315 60.5057 101.406 60.6305 101.413L60.7553 101.419C60.4444 96.9803 60.2419 92.4636 60.1478 87.8691C60.0558 83.233 60.127 78.6681 60.3614 74.1742L60.5241 71.0534C60.8852 70.5298 61.4611 70.2887 62.2517 70.3299C63.0423 70.3711 63.615 70.5888 63.97 70.9828C64.325 71.3768 64.5497 71.8684 64.6441 72.4574C64.7407 73.0048 64.7717 73.6114 64.7369 74.2772C64.7044 74.9014 64.6948 75.485 64.7082 76.0281C64.706 76.0697 64.7225 76.154 64.7576 76.281C64.7949 76.3664 64.8245 76.5974 64.8466 76.9741C64.9125 77.3113 64.9467 77.8555 64.9492 78.6066C64.9956 79.3184 65.0267 80.3213 65.0426 81.6156C65.1002 82.912 65.1196 84.5402 65.1008 86.5003C65.1236 88.4624 65.1445 90.8626 65.1633 93.7008L65.1047 94.8243L66.5009 108.854C66.5251 109.189 66.6645 109.717 66.9188 110.44C67.217 111.123 67.3563 111.652 67.3368 112.026C67.2912 112.9 67.0046 113.595 66.4771 114.109C65.9496 114.624 65.2281 114.858 64.3127 114.81C64.1878 114.804 64.0236 114.753 63.8199 114.659C63.6183 114.524 63.4168 114.388 63.2152 114.252C63.0137 114.117 62.8122 113.981 62.6106 113.845C62.4529 113.67 62.3345 113.539 62.2557 113.451L52.9523 98.634C52.9107 98.6318 52.8723 98.5672 52.8372 98.4402C52.8043 98.2716 52.7692 98.1446 52.7319 98.0592C52.5018 97.6717 52.1928 97.1966 51.8049 96.634C51.4192 96.0297 51.0532 95.4474 50.7069 94.8869C50.3628 94.2848 50.056 93.7682 49.7864 93.3369C49.5168 92.9056 49.3831 92.6691 49.3853 92.6275L49.0863 92.3616C48.672 96.3037 48.2973 100.29 47.9619 104.319C47.6287 108.307 47.4204 112.302 47.3369 116.303C47.2276 116.798 46.9344 117.221 46.4571 117.571C46.0215 117.924 45.5748 118.089 45.1171 118.065C44.2849 118.021 43.63 117.779 43.1524 117.336C42.7185 116.855 42.3536 116.252 42.0576 115.527L42.3408 110.097ZM70.394 109.808L73.54 93.8873C73.6514 93.3508 73.9009 92.9674 74.2884 92.7373C74.7175 92.5093 75.1817 92.4083 75.6811 92.4344C76.5965 92.4821 77.3106 92.7906 77.8233 93.3597C78.3382 93.8873 78.7633 94.5353 79.0988 95.3038L79.1612 95.3071C79.6605 95.3331 80.1017 95.2727 80.4849 95.1258C80.9119 94.9394 81.4166 94.8614 81.9991 94.8918C83.3307 94.9613 84.4324 95.436 85.3045 96.3159C86.2181 97.198 86.9347 98.2576 87.4543 99.4947C87.9761 100.69 88.326 101.981 88.504 103.367C88.7237 104.755 88.8064 105.97 88.7521 107.01C88.687 108.258 88.2814 109.635 87.5354 111.14C86.8309 112.647 85.902 114.059 84.7485 115.375C83.6366 116.694 82.391 117.777 81.0118 118.623C79.6325 119.469 78.2563 119.856 76.8832 119.784C75.6349 119.719 74.5682 119.371 73.6832 118.741C72.8397 118.113 72.1495 117.347 71.6126 116.443C71.1194 115.499 70.7772 114.459 70.5862 113.322C70.3951 112.186 70.3278 111.077 70.3842 109.995L70.394 109.808ZM75.6173 110.456C75.6789 110.876 75.7371 111.359 75.7921 111.904C75.8471 112.449 75.9459 112.955 76.0885 113.422C76.2332 113.846 76.4447 114.191 76.723 114.456C77.045 114.681 77.5027 114.705 78.0961 114.528C78.6631 114.057 79.2749 113.525 79.9316 112.934C80.5883 112.342 81.2056 111.707 81.7834 111.027C82.4028 110.35 82.9204 109.626 83.3362 108.855C83.7519 108.084 83.9825 107.262 84.0281 106.388C84.2683 104.982 84.2316 103.687 83.9179 102.502C83.6063 101.276 83.1099 100.395 82.4285 99.8584C81.791 99.2828 81.0245 99.1802 80.1289 99.5507C79.2356 99.8796 78.3064 100.895 77.3415 102.597C76.7857 103.653 76.3659 104.904 76.0818 106.349C75.8416 107.755 75.69 109.062 75.6271 110.268L75.6173 110.456ZM97.7474 102.535C97.1649 102.505 96.6372 102.623 96.1643 102.89C95.6914 103.158 95.1428 103.275 94.5187 103.243C94.4355 103.238 94.2066 103.226 93.8321 103.207C93.5014 103.148 93.2944 103.116 93.2112 103.112C93.0556 102.895 92.8771 102.719 92.6755 102.583C92.474 102.448 92.2724 102.312 92.0709 102.176C91.8715 101.999 91.6941 101.802 91.5385 101.585C91.4245 101.371 91.3773 101.076 91.3968 100.702C91.4293 100.078 91.705 99.5912 92.2239 99.2428C92.7449 98.8527 93.3459 98.5294 94.0269 98.2729C94.7078 98.0163 95.3877 97.7806 96.0665 97.5656C96.7869 97.3529 97.3638 97.0909 97.7973 96.7797L97.9405 94.0335C98.1011 90.9543 98.1161 87.8676 97.9854 84.7732C97.8569 81.6373 97.8718 78.5505 98.0303 75.513C98.0737 74.6808 98.3099 74.1507 98.7391 73.9228C99.1682 73.6948 99.7364 73.5993 100.444 73.6362C101.276 73.6796 101.866 73.9607 102.215 74.4796C102.607 74.959 102.868 75.5567 102.997 76.2728C103.129 76.9472 103.174 77.6797 103.133 78.4703C103.094 79.2193 103.081 79.8653 103.095 80.4084C103.066 80.9494 103.058 81.9086 103.07 83.286C103.081 84.6635 103.089 86.1242 103.092 87.6681C103.094 89.212 103.102 90.6727 103.113 92.0502C103.125 93.4277 103.137 94.388 103.151 94.9311C103.319 94.8981 103.637 94.8104 104.103 94.6678C104.613 94.4858 105.143 94.3257 105.693 94.1875C106.245 94.0076 106.754 93.8464 107.22 93.7039C107.728 93.5635 108.088 93.4571 108.301 93.3847C109.407 92.9834 110.556 92.5427 111.749 92.0625C112.945 91.5408 114.146 91.3113 115.353 91.3743C116.185 91.4177 116.794 91.7415 117.18 92.3458C117.609 92.9106 117.804 93.5675 117.765 94.3164C117.737 94.8574 117.508 95.2418 117.079 95.4698C116.65 95.6977 116.201 95.9038 115.733 96.088L104.152 99.7397C104.023 99.8164 103.893 99.8931 103.764 99.9699C103.637 100.005 103.508 100.082 103.377 100.2L103.273 102.197C103.197 103.654 103.138 105.173 103.097 106.757C103.1 108.301 103.168 109.806 103.3 111.274C103.443 112.533 103.608 113.772 103.794 114.992C103.981 116.212 104.042 117.446 103.977 118.694C103.957 119.068 103.806 119.561 103.524 120.172C103.242 120.783 102.83 121.075 102.289 121.047C101.166 120.988 100.268 120.607 99.5952 119.905C98.9226 119.202 98.5739 118.287 98.5493 117.159C98.4541 114.984 98.349 112.601 98.2338 110.008C98.1604 107.417 98.0814 104.931 97.9971 102.548L97.7474 102.535ZM145.344 105.518C145.222 106.263 145.087 106.84 144.941 107.249C144.836 107.661 144.65 108.027 144.383 108.347C144.116 108.667 143.744 109.002 143.267 109.353C142.792 109.662 142.141 110.128 141.316 110.753C140.493 111.336 139.472 112.117 138.252 113.097C137.033 114.076 135.548 115.355 133.796 116.932C133.098 117.522 132.378 118.131 131.636 118.76C130.894 119.388 130.113 119.953 129.295 120.452C128.519 120.913 127.707 121.288 126.858 121.577C126.008 121.867 125.126 121.987 124.21 121.94C122.421 121.846 121.142 121.175 120.372 119.924C119.603 118.674 119.26 117.259 119.342 115.678C119.396 114.637 119.463 113.765 119.541 113.059C119.661 112.356 119.876 111.45 120.184 110.339C119.748 109.899 119.371 109.525 119.053 109.216C118.738 108.866 118.594 108.42 118.622 107.879C118.648 107.38 118.77 107.053 118.987 106.897C119.245 106.744 119.521 106.654 119.814 106.627C120.151 106.562 120.468 106.495 120.763 106.427C121.059 106.359 121.276 106.203 121.414 105.96C121.51 105.714 121.679 105.264 121.922 104.609C122.207 103.957 122.492 103.283 122.779 102.589C123.067 101.853 123.332 101.178 123.573 100.565C123.857 99.9122 124.047 99.4631 124.144 99.2178C124.472 98.5256 124.821 97.8345 125.19 97.1445C125.604 96.4151 126.055 95.771 126.543 95.2123C127.073 94.6558 127.659 94.2066 128.303 93.8647C128.988 93.5249 129.768 93.3778 130.642 93.4234C131.141 93.4494 131.732 93.7098 132.416 94.2044C133.141 94.7012 133.819 95.2998 134.45 96.0003C135.083 96.6591 135.61 97.3542 136.031 98.0854C136.452 98.8167 136.649 99.432 136.623 99.9313C136.591 100.555 136.415 101.13 136.095 101.656C135.778 102.14 135.378 102.599 134.897 103.033C134.459 103.427 133.981 103.799 133.462 104.147C132.943 104.496 132.467 104.826 132.033 105.137C131.992 105.135 131.906 105.172 131.777 105.249C131.648 105.325 131.541 105.382 131.455 105.42C131.412 105.459 131.302 105.558 131.127 105.715C130.996 105.834 130.843 105.972 130.667 106.129C130.492 106.287 130.317 106.445 130.142 106.603C130.009 106.763 129.92 106.862 129.876 106.902C129.745 107.02 129.484 107.215 129.095 107.487C128.749 107.719 128.359 107.991 127.926 108.302C127.494 108.572 127.084 108.842 126.694 109.114C126.348 109.346 126.111 109.501 125.981 109.578L125.706 110.064C125.614 110.226 125.511 110.596 125.397 111.174C125.328 111.713 125.233 112.334 125.113 113.037C124.992 113.74 124.871 114.464 124.749 115.209C124.67 115.914 124.619 116.495 124.595 116.953C124.593 116.995 124.612 117.037 124.651 117.081C124.73 117.169 124.79 117.213 124.832 117.216C125.165 117.233 125.485 117.104 125.791 116.828C126.098 116.551 126.42 116.36 126.76 116.252L137.228 107.536L139.992 103.737C140.215 103.457 140.627 103.165 141.227 102.863C141.871 102.521 142.504 102.366 143.129 102.398C143.755 102.389 144.286 102.605 144.722 103.045C145.2 103.487 145.407 104.311 145.344 105.518ZM131.867 99.9336C132.083 99.778 132.18 99.5326 132.155 99.1976C132.131 98.8625 132.022 98.5648 131.827 98.3042C131.673 98.0459 131.452 97.8883 131.163 97.8315C130.876 97.7331 130.598 97.8646 130.329 98.2261C130.195 98.386 129.949 98.707 129.59 99.189C129.273 99.6731 128.933 100.177 128.572 100.7C128.255 101.185 127.983 101.609 127.755 101.972C127.527 102.336 127.478 102.479 127.607 102.403L131.867 99.9336Z" fill="black"/>
<path d="M105.209 142.329C99.1138 163.587 89.9008 170.474 85.0333 174.018C85.0333 174.018 92.2913 170.938 97.2078 167.671C102.957 163.85 112.502 155.098 112.502 155.098C112.502 155.098 136.986 135.887 142.497 130.899C148.008 125.911 163.751 113.884 170.998 106.554C178.245 99.2237 178.488 96.7356 178.488 96.7356C172.066 102.472 167.283 113.727 142.402 111.297C112.917 108.417 109.132 128.645 105.209 142.329Z" fill="url(#paint1_linear_22_46)"/>
<path d="M61.4762 33.6068L61.9802 28.4458L62.9168 20.8456L65.9959 21.1463L68.879 28.9695L73.2125 21.8511L76.2216 22.145L75.6838 29.7312L75.1747 34.9447L72.3755 34.6713L72.8419 29.8952L73.1489 26.1191L69.4124 32.3685L67.558 32.1874L65.1467 25.3199L64.7043 29.1269L64.2404 33.8768L61.4762 33.6068ZM80.3097 39.3318L78.1436 38.2725L80.3522 34.2847L77.3804 25.5609L80.1271 25.8292L81.9923 31.7779L84.8333 26.2888L87.44 26.5434L80.3097 39.3318ZM92.9363 36.6352L93.8606 27.1705L96.2662 27.4054L96.275 28.9428C96.5817 28.4547 96.9834 28.0789 97.4801 27.8154C97.9832 27.5466 98.6051 27.4484 99.3457 27.5207C100.413 27.6249 101.179 28.0412 101.643 28.7695C102.109 29.492 102.283 30.4509 102.166 31.6464L101.596 37.481L98.797 37.2076L99.3395 31.653C99.3936 31.099 99.3903 30.6512 99.3294 30.3097C99.2686 29.9682 99.1491 29.7151 98.9709 29.5505C98.7927 29.3859 98.5461 29.2883 98.2312 29.2575C97.9629 29.2313 97.7161 29.2573 97.4906 29.3353C97.271 29.414 97.0757 29.545 96.9047 29.7285C96.7396 29.9125 96.6014 30.1522 96.4901 30.4474C96.3852 30.7374 96.3132 31.0836 96.2739 31.486L95.7442 36.9094L92.9363 36.6352ZM108.156 38.3071C107.182 38.212 106.366 37.9233 105.707 37.4409C105.048 36.9526 104.568 36.32 104.267 35.5429C103.966 34.7659 103.863 33.8875 103.959 32.9078C104.054 31.9339 104.324 31.1007 104.768 30.4082C105.213 29.7098 105.806 29.1907 106.545 28.8509C107.286 28.5052 108.143 28.3799 109.117 28.475C110.09 28.5701 110.904 28.8586 111.558 29.3404C112.218 29.817 112.698 30.4408 113 31.2121C113.308 31.9781 113.414 32.848 113.319 33.8219C113.223 34.8016 112.95 35.6432 112.498 36.3468C112.053 37.051 111.46 37.5788 110.719 37.9304C109.984 38.2767 109.13 38.4022 108.156 38.3071ZM108.335 36.4789C108.743 36.5188 109.095 36.4384 109.392 36.2377C109.689 36.0312 109.929 35.7044 110.114 35.2574C110.305 34.811 110.434 34.2407 110.502 33.5468C110.57 32.8528 110.556 32.2745 110.46 31.8118C110.364 31.3432 110.187 30.9845 109.929 30.7356C109.677 30.4872 109.346 30.3431 108.938 30.3032C108.326 30.2434 107.835 30.4486 107.465 30.9188C107.101 31.3896 106.868 32.144 106.767 33.182C106.699 33.8818 106.712 34.4689 106.807 34.9432C106.908 35.4182 107.087 35.783 107.345 36.0378C107.602 36.2926 107.933 36.4396 108.335 36.4789ZM119.101 39.27C118.29 39.1909 117.644 39.0542 117.163 38.86C116.687 38.6664 116.339 38.4086 116.117 38.0867C115.895 37.7648 115.762 37.375 115.719 36.9175C115.682 36.4546 115.693 35.92 115.752 35.3135L116.175 30.9835L114.731 30.8425L114.947 29.3623L116.404 29.3545L116.85 26.6958L119.379 26.7485L119.097 29.6352L121.616 29.8812L121.458 31.4995L118.939 31.2534L118.508 35.6709C118.471 36.0441 118.477 36.3479 118.524 36.5821C118.578 36.817 118.699 36.9966 118.887 37.1209C119.075 37.2452 119.355 37.3344 119.726 37.3883C119.941 37.4152 120.156 37.445 120.371 37.4778C120.592 37.5053 120.81 37.5354 121.024 37.5681L120.758 39.3878C120.484 39.3668 120.206 39.3456 119.926 39.3241C119.651 39.309 119.376 39.291 119.101 39.27ZM126.947 40.1334C125.95 40.036 125.097 39.7526 124.389 39.2832C123.682 38.8137 123.157 38.1914 122.814 37.4162C122.473 36.6351 122.351 35.7431 122.449 34.74C122.548 33.7195 122.829 32.8638 123.291 32.173C123.754 31.4764 124.354 30.964 125.093 30.6358C125.837 30.3081 126.673 30.1896 127.6 30.2802C128.556 30.3736 129.31 30.6415 129.862 31.0839C130.419 31.521 130.808 32.0947 131.027 32.8049C131.247 33.5093 131.324 34.3117 131.26 35.212C131.242 35.3986 131.216 35.5727 131.182 35.7343C131.15 35.89 131.119 36.0195 131.092 36.1228C131.07 36.2266 131.055 36.2899 131.047 36.3127L125.168 35.7386C125.171 36.2569 125.265 36.7018 125.453 37.0734C125.646 37.4455 125.915 37.7396 126.259 37.9557C126.603 38.1717 126.999 38.3017 127.448 38.3456C127.944 38.394 128.412 38.3661 128.852 38.2619C129.291 38.1577 129.706 38.0098 130.096 37.8182L130.245 37.8327L130.705 39.3613C130.299 39.6572 129.762 39.8786 129.094 40.0253C128.432 40.1726 127.717 40.2086 126.947 40.1334ZM125.273 34.2123L128.956 34.5719C129.03 33.7491 128.945 33.1432 128.701 32.7543C128.457 32.3596 128.066 32.136 127.53 32.0836C126.976 32.0295 126.491 32.1677 126.076 32.498C125.668 32.8231 125.4 33.3945 125.273 34.2123ZM134.664 40.7724C134.279 40.7348 133.966 40.5953 133.725 40.3539C133.484 40.1125 133.385 39.7614 133.43 39.3007C133.475 38.84 133.64 38.5117 133.924 38.3157C134.209 38.1139 134.543 38.0318 134.928 38.0694C135.325 38.1081 135.64 38.2538 135.875 38.5062C136.115 38.7535 136.213 39.1074 136.168 39.5681C136.125 40.0172 135.961 40.3397 135.677 40.5357C135.398 40.7322 135.061 40.8111 134.664 40.7724ZM140.893 41.3806C140.508 41.3431 140.195 41.2036 139.953 40.9622C139.712 40.7208 139.614 40.3697 139.659 39.909C139.704 39.4483 139.868 39.12 140.152 38.924C140.437 38.7222 140.772 38.6401 141.156 38.6777C141.553 38.7164 141.869 38.862 142.103 39.1145C142.344 39.3617 142.442 39.7157 142.397 40.1764C142.353 40.6254 142.189 40.948 141.905 41.1439C141.626 41.3405 141.289 41.4194 140.893 41.3806ZM147.121 41.9889C146.736 41.9513 146.423 41.8118 146.181 41.5704C145.94 41.329 145.842 40.978 145.887 40.5173C145.932 40.0566 146.096 39.7282 146.38 39.5323C146.665 39.3305 147 39.2484 147.385 39.286C147.781 39.3247 148.097 39.4703 148.331 39.7228C148.572 39.97 148.67 40.324 148.625 40.7847C148.581 41.2337 148.417 41.5562 148.133 41.7522C147.855 41.9487 147.517 42.0276 147.121 41.9889Z" fill="white"/>
<defs>
<filter id="filter0_f_22_46" x="0" y="0" width="193.387" height="184.197" filterUnits="userSpaceOnUse" color-interpolation-filters="sRGB">
<feFlood flood-opacity="0" result="BackgroundImageFix"/>
<feBlend mode="normal" in="SourceGraphic" in2="BackgroundImageFix" result="shape"/>
<feGaussianBlur stdDeviation="2" result="effect1_foregroundBlur_22_46"/>
</filter>
<linearGradient id="paint0_linear_22_46" x1="125.612" y1="144.321" x2="134.787" y2="153.255" gradientUnits="userSpaceOnUse">
<stop stop-color="white"/>
<stop offset="1" stop-color="#A8A7A7"/>
</linearGradient>
<linearGradient id="paint1_linear_22_46" x1="124.341" y1="111.04" x2="147.642" y2="139.942" gradientUnits="userSpaceOnUse">
<stop offset="0.201923" stop-color="#E2E2E2"/>
<stop offset="0.5625" stop-color="#BCBBBB"/>
<stop offset="0.735577" stop-color="#A3A2A2"/>
</linearGradient>
</defs>
</svg>
