<svg width="180" height="57" viewBox="0 0 180 57" fill="none" xmlns="http://www.w3.org/2000/svg">
<rect width="180" height="57" rx="28" fill="#FDDFDF"/>
<circle cx="27" cy="27" r="12" fill="#DB5D63"/>
<path d="M52.5227 42V12.9091H62.3523C64.6345 12.9091 66.5 13.321 67.9489 14.1449C69.4072 14.9593 70.4867 16.0625 71.1875 17.4545C71.8883 18.8466 72.2386 20.3996 72.2386 22.1136C72.2386 23.8277 71.8883 25.3854 71.1875 26.7869C70.4962 28.1884 69.4261 29.3059 67.9773 30.1392C66.5284 30.9631 64.6723 31.375 62.4091 31.375H55.3636V28.25H62.2955C63.858 28.25 65.1127 27.9801 66.0597 27.4403C67.0066 26.9006 67.6932 26.1714 68.1193 25.2528C68.5549 24.3248 68.7727 23.2784 68.7727 22.1136C68.7727 20.9489 68.5549 19.9072 68.1193 18.9886C67.6932 18.0701 67.0019 17.3504 66.0455 16.8295C65.089 16.2992 63.8201 16.0341 62.2386 16.0341H56.0455V42H52.5227ZM86.3722 42.4545C84.2699 42.4545 82.4564 41.9905 80.9318 41.0625C79.4167 40.125 78.2472 38.8182 77.4233 37.142C76.6089 35.4564 76.2017 33.4962 76.2017 31.2614C76.2017 29.0265 76.6089 27.0568 77.4233 25.3523C78.2472 23.6383 79.393 22.303 80.8608 21.3466C82.3381 20.3807 84.0616 19.8977 86.0312 19.8977C87.1676 19.8977 88.2898 20.0871 89.3977 20.4659C90.5057 20.8447 91.5142 21.4602 92.4233 22.3125C93.3324 23.1553 94.0568 24.2727 94.5966 25.6648C95.1364 27.0568 95.4062 28.7708 95.4062 30.8068V32.2273H78.5881V29.3295H91.9972C91.9972 28.0985 91.7509 27 91.2585 26.0341C90.7756 25.0682 90.0843 24.3059 89.1847 23.7472C88.2945 23.1884 87.2434 22.9091 86.0312 22.9091C84.696 22.9091 83.5407 23.2405 82.5653 23.9034C81.5994 24.5568 80.8561 25.4091 80.3352 26.4602C79.8144 27.5114 79.554 28.6383 79.554 29.8409V31.7727C79.554 33.4205 79.8381 34.8172 80.4062 35.9631C80.9839 37.0994 81.7841 37.9659 82.8068 38.5625C83.8295 39.1496 85.018 39.4432 86.3722 39.4432C87.2528 39.4432 88.0483 39.3201 88.7585 39.0739C89.4782 38.8182 90.0985 38.4394 90.6193 37.9375C91.1402 37.4261 91.5426 36.7917 91.8267 36.0341L95.0653 36.9432C94.7244 38.0417 94.1515 39.0076 93.3466 39.8409C92.5417 40.6648 91.5473 41.3087 90.3636 41.7727C89.1799 42.2273 87.8494 42.4545 86.3722 42.4545ZM100.506 42V20.1818H103.744V23.4773H103.972C104.369 22.3977 105.089 21.5218 106.131 20.8494C107.172 20.1771 108.347 19.8409 109.653 19.8409C109.9 19.8409 110.207 19.8456 110.577 19.8551C110.946 19.8646 111.225 19.8788 111.415 19.8977V23.3068C111.301 23.2784 111.041 23.2358 110.634 23.179C110.236 23.1127 109.814 23.0795 109.369 23.0795C108.309 23.0795 107.362 23.3021 106.528 23.7472C105.705 24.1828 105.051 24.7888 104.568 25.5653C104.095 26.3324 103.858 27.2083 103.858 28.1932V42H100.506ZM122.963 42.4545C121.145 42.4545 119.54 41.9953 118.148 41.0767C116.756 40.1487 115.667 38.8419 114.881 37.1562C114.095 35.4612 113.702 33.4583 113.702 31.1477C113.702 28.8561 114.095 26.8674 114.881 25.1818C115.667 23.4962 116.76 22.1941 118.162 21.2756C119.563 20.357 121.183 19.8977 123.02 19.8977C124.44 19.8977 125.563 20.1345 126.386 20.608C127.22 21.072 127.854 21.6023 128.29 22.1989C128.735 22.786 129.08 23.2689 129.327 23.6477H129.611V12.9091H132.963V42H129.724V38.6477H129.327C129.08 39.0455 128.73 39.5473 128.276 40.1534C127.821 40.75 127.172 41.285 126.33 41.7585C125.487 42.2225 124.365 42.4545 122.963 42.4545ZM123.418 39.4432C124.762 39.4432 125.899 39.0928 126.827 38.392C127.755 37.6818 128.46 36.7017 128.943 35.4517C129.426 34.1922 129.668 32.7386 129.668 31.0909C129.668 29.4621 129.431 28.0369 128.957 26.8153C128.484 25.5843 127.783 24.6278 126.855 23.946C125.927 23.2547 124.781 22.9091 123.418 22.9091C121.997 22.9091 120.813 23.2737 119.866 24.0028C118.929 24.7225 118.223 25.7027 117.75 26.9432C117.286 28.1742 117.054 29.5568 117.054 31.0909C117.054 32.6439 117.291 34.0549 117.764 35.3239C118.247 36.5833 118.957 37.5871 119.895 38.3352C120.842 39.0739 122.016 39.4432 123.418 39.4432ZM153.318 33.0795V20.1818H156.67V42H153.318V38.3068H153.091C152.58 39.4148 151.784 40.357 150.705 41.1335C149.625 41.9006 148.261 42.2841 146.614 42.2841C145.25 42.2841 144.038 41.9858 142.977 41.3892C141.917 40.7831 141.083 39.8741 140.477 38.6619C139.871 37.4403 139.568 35.9015 139.568 34.0455V20.1818H142.92V33.8182C142.92 35.4091 143.366 36.678 144.256 37.625C145.155 38.572 146.301 39.0455 147.693 39.0455C148.527 39.0455 149.374 38.8324 150.236 38.4062C151.107 37.9801 151.836 37.3267 152.423 36.446C153.02 35.5653 153.318 34.4432 153.318 33.0795Z" fill="#683732"/>
</svg>
