<svg width="285" height="57" viewBox="0 0 285 57" fill="none" xmlns="http://www.w3.org/2000/svg">
<rect width="285" height="57" rx="28" fill="#E8E8E6"/>
<circle cx="27" cy="27" r="12" fill="#868283"/>
<path d="M52.5227 42V12.9091H62.3523C64.6345 12.9091 66.5 13.321 67.9489 14.1449C69.4072 14.9593 70.4867 16.0625 71.1875 17.4545C71.8883 18.8466 72.2386 20.3996 72.2386 22.1136C72.2386 23.8277 71.8883 25.3854 71.1875 26.7869C70.4962 28.1884 69.4261 29.3059 67.9773 30.1392C66.5284 30.9631 64.6723 31.375 62.4091 31.375H55.3636V28.25H62.2955C63.858 28.25 65.1127 27.9801 66.0597 27.4403C67.0066 26.9006 67.6932 26.1714 68.1193 25.2528C68.5549 24.3248 68.7727 23.2784 68.7727 22.1136C68.7727 20.9489 68.5549 19.9072 68.1193 18.9886C67.6932 18.0701 67.0019 17.3504 66.0455 16.8295C65.089 16.2992 63.8201 16.0341 62.2386 16.0341H56.0455V42H52.5227ZM77.4588 42V20.1818H80.6974V23.4773H80.9247C81.3224 22.3977 82.0421 21.5218 83.0838 20.8494C84.1255 20.1771 85.2997 19.8409 86.6065 19.8409C86.8527 19.8409 87.1605 19.8456 87.5298 19.8551C87.8991 19.8646 88.1785 19.8788 88.3679 19.8977V23.3068C88.2543 23.2784 87.9938 23.2358 87.5866 23.179C87.1889 23.1127 86.7675 23.0795 86.3224 23.0795C85.2618 23.0795 84.3149 23.3021 83.4815 23.7472C82.6577 24.1828 82.0043 24.7888 81.5213 25.5653C81.0478 26.3324 80.8111 27.2083 80.8111 28.1932V42H77.4588ZM100.541 42.4545C98.5715 42.4545 96.8433 41.9858 95.3565 41.0483C93.8793 40.1108 92.724 38.7992 91.8906 37.1136C91.0668 35.428 90.6548 33.4583 90.6548 31.2045C90.6548 28.9318 91.0668 26.9479 91.8906 25.2528C92.724 23.5578 93.8793 22.2415 95.3565 21.304C96.8433 20.3665 98.5715 19.8977 100.541 19.8977C102.511 19.8977 104.234 20.3665 105.712 21.304C107.198 22.2415 108.354 23.5578 109.178 25.2528C110.011 26.9479 110.428 28.9318 110.428 31.2045C110.428 33.4583 110.011 35.428 109.178 37.1136C108.354 38.7992 107.198 40.1108 105.712 41.0483C104.234 41.9858 102.511 42.4545 100.541 42.4545ZM100.541 39.4432C102.037 39.4432 103.268 39.0597 104.234 38.2926C105.2 37.5256 105.915 36.517 106.379 35.267C106.843 34.017 107.075 32.6629 107.075 31.2045C107.075 29.7462 106.843 28.3873 106.379 27.1278C105.915 25.8684 105.2 24.8504 104.234 24.0739C103.268 23.2973 102.037 22.9091 100.541 22.9091C99.045 22.9091 97.8139 23.2973 96.848 24.0739C95.8821 24.8504 95.1671 25.8684 94.7031 27.1278C94.2391 28.3873 94.0071 29.7462 94.0071 31.2045C94.0071 32.6629 94.2391 34.017 94.7031 35.267C95.1671 36.517 95.8821 37.5256 96.848 38.2926C97.8139 39.0597 99.045 39.4432 100.541 39.4432ZM115.545 50.1818V20.1818H118.783V23.6477H119.181C119.427 23.2689 119.768 22.786 120.204 22.1989C120.649 21.6023 121.283 21.072 122.107 20.608C122.941 20.1345 124.067 19.8977 125.488 19.8977C127.325 19.8977 128.944 20.357 130.346 21.2756C131.747 22.1941 132.841 23.4962 133.627 25.1818C134.413 26.8674 134.806 28.8561 134.806 31.1477C134.806 33.4583 134.413 35.4612 133.627 37.1562C132.841 38.8419 131.752 40.1487 130.36 41.0767C128.968 41.9953 127.363 42.4545 125.545 42.4545C124.143 42.4545 123.021 42.2225 122.178 41.7585C121.335 41.285 120.687 40.75 120.232 40.1534C119.778 39.5473 119.427 39.0455 119.181 38.6477H118.897V50.1818H115.545ZM118.84 31.0909C118.84 32.7386 119.082 34.1922 119.565 35.4517C120.048 36.7017 120.753 37.6818 121.681 38.392C122.609 39.0928 123.746 39.4432 125.09 39.4432C126.492 39.4432 127.661 39.0739 128.599 38.3352C129.546 37.5871 130.256 36.5833 130.729 35.3239C131.212 34.0549 131.454 32.6439 131.454 31.0909C131.454 29.5568 131.217 28.1742 130.744 26.9432C130.28 25.7027 129.574 24.7225 128.627 24.0028C127.69 23.2737 126.511 22.9091 125.09 22.9091C123.727 22.9091 122.581 23.2547 121.653 23.946C120.725 24.6278 120.024 25.5843 119.55 26.8153C119.077 28.0369 118.84 29.4621 118.84 31.0909ZM148.783 42.4545C146.814 42.4545 145.085 41.9858 143.599 41.0483C142.121 40.1108 140.966 38.7992 140.133 37.1136C139.309 35.428 138.897 33.4583 138.897 31.2045C138.897 28.9318 139.309 26.9479 140.133 25.2528C140.966 23.5578 142.121 22.2415 143.599 21.304C145.085 20.3665 146.814 19.8977 148.783 19.8977C150.753 19.8977 152.477 20.3665 153.954 21.304C155.441 22.2415 156.596 23.5578 157.42 25.2528C158.253 26.9479 158.67 28.9318 158.67 31.2045C158.67 33.4583 158.253 35.428 157.42 37.1136C156.596 38.7992 155.441 40.1108 153.954 41.0483C152.477 41.9858 150.753 42.4545 148.783 42.4545ZM148.783 39.4432C150.28 39.4432 151.511 39.0597 152.477 38.2926C153.442 37.5256 154.157 36.517 154.621 35.267C155.085 34.017 155.317 32.6629 155.317 31.2045C155.317 29.7462 155.085 28.3873 154.621 27.1278C154.157 25.8684 153.442 24.8504 152.477 24.0739C151.511 23.2973 150.28 22.9091 148.783 22.9091C147.287 22.9091 146.056 23.2973 145.09 24.0739C144.124 24.8504 143.409 25.8684 142.945 27.1278C142.481 28.3873 142.249 29.7462 142.249 31.2045C142.249 32.6629 142.481 34.017 142.945 35.267C143.409 36.517 144.124 37.5256 145.09 38.2926C146.056 39.0597 147.287 39.4432 148.783 39.4432ZM179.241 25.0682L176.23 25.9205C176.041 25.4186 175.761 24.9309 175.392 24.4574C175.032 23.9744 174.54 23.5767 173.915 23.2642C173.29 22.9517 172.49 22.7955 171.514 22.7955C170.179 22.7955 169.066 23.1032 168.176 23.7188C167.295 24.3248 166.855 25.0966 166.855 26.0341C166.855 26.8674 167.158 27.5256 167.764 28.0085C168.37 28.4915 169.317 28.8939 170.605 29.2159L173.844 30.0114C175.795 30.4848 177.248 31.2093 178.205 32.1847C179.161 33.1506 179.639 34.3958 179.639 35.9205C179.639 37.1705 179.279 38.2879 178.56 39.2727C177.849 40.2576 176.855 41.0341 175.577 41.6023C174.298 42.1705 172.812 42.4545 171.116 42.4545C168.891 42.4545 167.049 41.9716 165.591 41.0057C164.133 40.0398 163.209 38.6288 162.821 36.7727L166.003 35.9773C166.306 37.1515 166.879 38.0322 167.722 38.6193C168.574 39.2064 169.687 39.5 171.06 39.5C172.622 39.5 173.863 39.1686 174.781 38.5057C175.709 37.8333 176.173 37.0284 176.173 36.0909C176.173 35.3333 175.908 34.6989 175.378 34.1875C174.848 33.6667 174.033 33.2784 172.935 33.0227L169.298 32.1705C167.3 31.697 165.832 30.9631 164.895 29.9688C163.967 28.965 163.503 27.7102 163.503 26.2045C163.503 24.9735 163.848 23.8845 164.54 22.9375C165.241 21.9905 166.192 21.2472 167.395 20.7074C168.607 20.1676 169.98 19.8977 171.514 19.8977C173.673 19.8977 175.368 20.3712 176.599 21.3182C177.84 22.2652 178.721 23.5152 179.241 25.0682ZM184.685 42V20.1818H188.038V42H184.685ZM186.39 16.5455C185.737 16.5455 185.173 16.3229 184.7 15.8778C184.236 15.4328 184.004 14.8977 184.004 14.2727C184.004 13.6477 184.236 13.1127 184.7 12.6676C185.173 12.2225 185.737 12 186.39 12C187.043 12 187.602 12.2225 188.066 12.6676C188.54 13.1127 188.776 13.6477 188.776 14.2727C188.776 14.8977 188.54 15.4328 188.066 15.8778C187.602 16.3229 187.043 16.5455 186.39 16.5455ZM203.666 20.1818V23.0227H192.359V20.1818H203.666ZM195.655 14.9545H199.007V35.75C199.007 36.697 199.144 37.4072 199.419 37.8807C199.703 38.3447 200.063 38.6572 200.499 38.8182C200.944 38.9697 201.412 39.0455 201.905 39.0455C202.274 39.0455 202.577 39.0265 202.814 38.9886C203.051 38.9413 203.24 38.9034 203.382 38.875L204.064 41.8864C203.837 41.9716 203.519 42.0568 203.112 42.142C202.705 42.2367 202.189 42.2841 201.564 42.2841C200.617 42.2841 199.689 42.0805 198.78 41.6733C197.88 41.2661 197.132 40.6458 196.536 39.8125C195.948 38.9792 195.655 37.928 195.655 36.6591V14.9545ZM208.709 42V20.1818H212.061V42H208.709ZM210.413 16.5455C209.76 16.5455 209.196 16.3229 208.723 15.8778C208.259 15.4328 208.027 14.8977 208.027 14.2727C208.027 13.6477 208.259 13.1127 208.723 12.6676C209.196 12.2225 209.76 12 210.413 12C211.067 12 211.625 12.2225 212.089 12.6676C212.563 13.1127 212.8 13.6477 212.8 14.2727C212.8 14.8977 212.563 15.4328 212.089 15.8778C211.625 16.3229 211.067 16.5455 210.413 16.5455ZM227.065 42.4545C225.095 42.4545 223.367 41.9858 221.88 41.0483C220.403 40.1108 219.247 38.7992 218.414 37.1136C217.59 35.428 217.178 33.4583 217.178 31.2045C217.178 28.9318 217.59 26.9479 218.414 25.2528C219.247 23.5578 220.403 22.2415 221.88 21.304C223.367 20.3665 225.095 19.8977 227.065 19.8977C229.034 19.8977 230.758 20.3665 232.235 21.304C233.722 22.2415 234.877 23.5578 235.701 25.2528C236.534 26.9479 236.951 28.9318 236.951 31.2045C236.951 33.4583 236.534 35.428 235.701 37.1136C234.877 38.7992 233.722 40.1108 232.235 41.0483C230.758 41.9858 229.034 42.4545 227.065 42.4545ZM227.065 39.4432C228.561 39.4432 229.792 39.0597 230.758 38.2926C231.724 37.5256 232.439 36.517 232.903 35.267C233.367 34.017 233.599 32.6629 233.599 31.2045C233.599 29.7462 233.367 28.3873 232.903 27.1278C232.439 25.8684 231.724 24.8504 230.758 24.0739C229.792 23.2973 228.561 22.9091 227.065 22.9091C225.568 22.9091 224.337 23.2973 223.371 24.0739C222.406 24.8504 221.691 25.8684 221.227 27.1278C220.763 28.3873 220.531 29.7462 220.531 31.2045C220.531 32.6629 220.763 34.017 221.227 35.267C221.691 36.517 222.406 37.5256 223.371 38.2926C224.337 39.0597 225.568 39.4432 227.065 39.4432ZM245.42 28.875V42H242.068V20.1818H245.307V23.5909H245.591C246.102 22.483 246.879 21.5928 247.92 20.9205C248.962 20.2386 250.307 19.8977 251.955 19.8977C253.432 19.8977 254.724 20.2008 255.832 20.8068C256.94 21.4034 257.802 22.3125 258.418 23.5341C259.033 24.7462 259.341 26.2803 259.341 28.1364V42H255.989V28.3636C255.989 26.6496 255.544 25.3144 254.653 24.358C253.763 23.392 252.542 22.9091 250.989 22.9091C249.919 22.9091 248.962 23.1411 248.119 23.6051C247.286 24.0691 246.628 24.7462 246.145 25.6364C245.662 26.5265 245.42 27.6061 245.42 28.875Z" fill="black"/>
</svg>
