<svg width="214" height="57" viewBox="0 0 214 57" fill="none" xmlns="http://www.w3.org/2000/svg">
<rect width="214" height="57" rx="28" fill="#E8E8E6"/>
<circle cx="27" cy="27" r="12" fill="#868283"/>
<path d="M63.0909 32.9091H66.9545L70.1932 37.1705L71.0455 38.3068L75.875 44.7273H72.0114L68.8295 40.4659L68.0341 39.3864L63.0909 32.9091ZM77.0682 27.4545C77.0682 30.5227 76.5142 33.1742 75.4062 35.4091C74.2983 37.6439 72.7784 39.3674 70.8466 40.5795C68.9148 41.7917 66.7083 42.3977 64.2273 42.3977C61.7462 42.3977 59.5398 41.7917 57.608 40.5795C55.6761 39.3674 54.1563 37.6439 53.0483 35.4091C51.9403 33.1742 51.3864 30.5227 51.3864 27.4545C51.3864 24.3864 51.9403 21.7348 53.0483 19.5C54.1563 17.2652 55.6761 15.5417 57.608 14.3295C59.5398 13.1174 61.7462 12.5114 64.2273 12.5114C66.7083 12.5114 68.9148 13.1174 70.8466 14.3295C72.7784 15.5417 74.2983 17.2652 75.4062 19.5C76.5142 21.7348 77.0682 24.3864 77.0682 27.4545ZM73.6591 27.4545C73.6591 24.9356 73.2377 22.8097 72.3949 21.0767C71.5616 19.3438 70.4299 18.0322 69 17.142C67.5795 16.2519 65.9886 15.8068 64.2273 15.8068C62.4659 15.8068 60.8703 16.2519 59.4403 17.142C58.0199 18.0322 56.8883 19.3438 56.0455 21.0767C55.2121 22.8097 54.7955 24.9356 54.7955 27.4545C54.7955 29.9735 55.2121 32.0994 56.0455 33.8324C56.8883 35.5653 58.0199 36.8769 59.4403 37.767C60.8703 38.6572 62.4659 39.1023 64.2273 39.1023C65.9886 39.1023 67.5795 38.6572 69 37.767C70.4299 36.8769 71.5616 35.5653 72.3949 33.8324C73.2377 32.0994 73.6591 29.9735 73.6591 27.4545ZM96.2869 33.0795V20.1818H99.6392V42H96.2869V38.3068H96.0597C95.5483 39.4148 94.7528 40.357 93.6733 41.1335C92.5938 41.9006 91.2301 42.2841 89.5824 42.2841C88.2188 42.2841 87.0066 41.9858 85.946 41.3892C84.8854 40.7831 84.0521 39.8741 83.446 38.6619C82.84 37.4403 82.5369 35.9015 82.5369 34.0455V20.1818H85.8892V33.8182C85.8892 35.4091 86.3343 36.678 87.2244 37.625C88.1241 38.572 89.2699 39.0455 90.6619 39.0455C91.4953 39.0455 92.3428 38.8324 93.2045 38.4062C94.0758 37.9801 94.8049 37.3267 95.392 36.446C95.9886 35.5653 96.2869 34.4432 96.2869 33.0795ZM112.2 42.5114C110.817 42.5114 109.562 42.2509 108.435 41.7301C107.308 41.1998 106.414 40.4375 105.751 39.4432C105.088 38.4394 104.756 37.2273 104.756 35.8068C104.756 34.5568 105.003 33.5436 105.495 32.767C105.987 31.9811 106.646 31.3655 107.469 30.9205C108.293 30.4754 109.202 30.1439 110.197 29.9261C111.201 29.6989 112.209 29.5189 113.222 29.3864C114.548 29.2159 115.623 29.0881 116.447 29.0028C117.28 28.9081 117.886 28.7519 118.265 28.5341C118.653 28.3163 118.847 27.9375 118.847 27.3977V27.2841C118.847 25.8826 118.464 24.7936 117.697 24.017C116.939 23.2405 115.789 22.8523 114.245 22.8523C112.645 22.8523 111.39 23.2027 110.481 23.9034C109.572 24.6042 108.933 25.3523 108.563 26.1477L105.381 25.0114C105.95 23.6856 106.707 22.6534 107.654 21.9148C108.611 21.1667 109.652 20.6458 110.779 20.3523C111.915 20.0492 113.033 19.8977 114.131 19.8977C114.832 19.8977 115.637 19.983 116.546 20.1534C117.465 20.3144 118.35 20.6506 119.202 21.1619C120.064 21.6733 120.779 22.4451 121.347 23.4773C121.915 24.5095 122.2 25.892 122.2 27.625V42H118.847V39.0455H118.677C118.45 39.5189 118.071 40.0256 117.54 40.5653C117.01 41.1051 116.305 41.5644 115.424 41.9432C114.543 42.322 113.469 42.5114 112.2 42.5114ZM112.711 39.5C114.037 39.5 115.154 39.2396 116.063 38.7188C116.982 38.1979 117.673 37.5256 118.137 36.7017C118.611 35.8778 118.847 35.0114 118.847 34.1023V31.0341C118.705 31.2045 118.393 31.3608 117.91 31.5028C117.436 31.6354 116.887 31.7538 116.262 31.858C115.647 31.9527 115.045 32.0379 114.458 32.1136C113.88 32.1799 113.412 32.2367 113.052 32.2841C112.181 32.3977 111.366 32.5824 110.609 32.8381C109.861 33.0843 109.254 33.4583 108.79 33.9602C108.336 34.4527 108.109 35.125 108.109 35.9773C108.109 37.142 108.54 38.0227 109.401 38.6193C110.272 39.2064 111.376 39.5 112.711 39.5ZM131.67 12.9091V42H128.318V12.9091H131.67ZM137.81 42V20.1818H141.163V42H137.81ZM139.515 16.5455C138.862 16.5455 138.298 16.3229 137.825 15.8778C137.361 15.4328 137.129 14.8977 137.129 14.2727C137.129 13.6477 137.361 13.1127 137.825 12.6676C138.298 12.2225 138.862 12 139.515 12C140.168 12 140.727 12.2225 141.191 12.6676C141.665 13.1127 141.901 13.6477 141.901 14.2727C141.901 14.8977 141.665 15.4328 141.191 15.8778C140.727 16.3229 140.168 16.5455 139.515 16.5455ZM157.018 20.1818V23.0227H145.257V20.1818H157.018ZM148.78 42V17.1705C148.78 15.9205 149.073 14.8788 149.661 14.0455C150.248 13.2121 151.01 12.5871 151.947 12.1705C152.885 11.7538 153.875 11.5455 154.916 11.5455C155.74 11.5455 156.412 11.6117 156.933 11.7443C157.454 11.8769 157.842 12 158.098 12.1136L157.132 15.0114C156.962 14.9545 156.725 14.8835 156.422 14.7983C156.128 14.7131 155.74 14.6705 155.257 14.6705C154.149 14.6705 153.349 14.9498 152.857 15.5085C152.374 16.0672 152.132 16.8864 152.132 17.9659V42H148.78ZM161.717 42V20.1818H165.069V42H161.717ZM163.421 16.5455C162.768 16.5455 162.204 16.3229 161.731 15.8778C161.267 15.4328 161.035 14.8977 161.035 14.2727C161.035 13.6477 161.267 13.1127 161.731 12.6676C162.204 12.2225 162.768 12 163.421 12C164.075 12 164.633 12.2225 165.097 12.6676C165.571 13.1127 165.808 13.6477 165.808 14.2727C165.808 14.8977 165.571 15.4328 165.097 15.8778C164.633 16.3229 164.075 16.5455 163.421 16.5455ZM180.357 42.4545C178.254 42.4545 176.441 41.9905 174.916 41.0625C173.401 40.125 172.232 38.8182 171.408 37.142C170.593 35.4564 170.186 33.4962 170.186 31.2614C170.186 29.0265 170.593 27.0568 171.408 25.3523C172.232 23.6383 173.377 22.303 174.845 21.3466C176.322 20.3807 178.046 19.8977 180.016 19.8977C181.152 19.8977 182.274 20.0871 183.382 20.4659C184.49 20.8447 185.499 21.4602 186.408 22.3125C187.317 23.1553 188.041 24.2727 188.581 25.6648C189.121 27.0568 189.391 28.7708 189.391 30.8068V32.2273H172.572V29.3295H185.982C185.982 28.0985 185.735 27 185.243 26.0341C184.76 25.0682 184.069 24.3059 183.169 23.7472C182.279 23.1884 181.228 22.9091 180.016 22.9091C178.68 22.9091 177.525 23.2405 176.55 23.9034C175.584 24.5568 174.84 25.4091 174.32 26.4602C173.799 27.5114 173.538 28.6383 173.538 29.8409V31.7727C173.538 33.4205 173.822 34.8172 174.391 35.9631C174.968 37.0994 175.768 37.9659 176.791 38.5625C177.814 39.1496 179.002 39.4432 180.357 39.4432C181.237 39.4432 182.033 39.3201 182.743 39.0739C183.463 38.8182 184.083 38.4394 184.604 37.9375C185.125 37.4261 185.527 36.7917 185.811 36.0341L189.05 36.9432C188.709 38.0417 188.136 39.0076 187.331 39.8409C186.526 40.6648 185.532 41.3087 184.348 41.7727C183.164 42.2273 181.834 42.4545 180.357 42.4545ZM178.311 17.2273L181.777 10.6364H185.697L181.266 17.2273H178.311Z" fill="black"/>
</svg>
