<svg width="151" height="144" viewBox="0 0 151 144" fill="none" xmlns="http://www.w3.org/2000/svg">
<rect x="2" y="2" width="147" height="140" rx="33" fill="url(#paint0_linear_113_171)" stroke="white" stroke-width="4"/>
<path d="M43 102C42.9994 82.9655 48.3028 78 59.5713 78C70.8398 78 70.3428 78 72 78" stroke="#616AC1" stroke-width="6"/>
<path d="M95 102C95.0006 82.9655 89.6972 78 78.4287 78C67.1602 78 67.6572 78 66 78" stroke="#616AC1" stroke-width="6"/>
<circle cx="69" cy="48" r="15" stroke="#616AC1" stroke-width="6"/>
<path d="M90 63C97.732 63 104 56.2843 104 48C104 39.7157 97.732 33 90 33" stroke="#616AC1" stroke-width="6"/>
<path d="M112 102C112.001 82.9617 110.194 78 98.9035 78L96 78" stroke="#616AC1" stroke-width="6"/>
<defs>
<linearGradient id="paint0_linear_113_171" x1="75.5" y1="0" x2="75.5" y2="144" gradientUnits="userSpaceOnUse">
<stop stop-color="#FCFEFE"/>
<stop offset="0.514423" stop-color="#F6F7FA"/>
</linearGradient>
</defs>
</svg>
