<svg width="57" height="58" viewBox="0 0 57 58" fill="none" xmlns="http://www.w3.org/2000/svg">
<path d="M30.9981 12.534C22.7627 18.5529 14.3239 32.6393 14.3239 32.6393L24.1953 42.5669C24.1953 42.5669 38.4739 34.3132 44.3949 26.0071C49.9764 18.1773 55.7668 5.53326 53.299 3.05137C50.8311 0.569474 38.6387 6.94985 30.9981 12.534Z" stroke="#656670" stroke-width="5"/>
<path d="M10.6839 18.1288C11.0584 18.055 24.8327 18.1288 24.8327 18.1288C20.1749 23.813 17.7533 26.9889 14.3327 32.6014C14.3327 32.6014 2.86362 32.9559 2.51108 32.6014C2.15853 32.2468 10.3095 18.2026 10.6839 18.1288Z" stroke="#656670" stroke-width="5"/>
<path d="M38.4922 46.9873C38.5681 46.6133 38.8327 32.3673 38.8327 32.3673C33.8908 36.2942 24.3327 42.3673 24.3327 42.3673C24.3327 42.3673 23.6209 54.7232 23.9735 55.0778C24.326 55.4323 38.4163 47.3613 38.4922 46.9873Z" stroke="#656670" stroke-width="5"/>
<path d="M13.5966 43.444C15.2619 45.1188 15.2629 47.8646 13.5412 49.5765C12.599 50.5132 10.8543 51.4407 9.03876 51.8156C7.12197 52.2114 6.01118 51.8399 5.58447 51.4108C5.15775 50.9816 4.79262 49.8688 5.1993 47.9542C5.58451 46.1409 6.52192 44.4014 7.46389 43.4646C9.18554 41.7527 11.9313 41.7693 13.5966 43.444Z" stroke="#656670" stroke-width="5"/>
</svg>
