<svg width="198" height="57" viewBox="0 0 198 57" fill="none" xmlns="http://www.w3.org/2000/svg">
<rect width="198" height="57" rx="28" fill="#DFEBE2"/>
<circle cx="27" cy="27" r="12" fill="#6B9479"/>
<path d="M72.4091 22C72.0966 21.0436 71.6847 20.1866 71.1733 19.429C70.6714 18.6619 70.0701 18.0085 69.3693 17.4688C68.678 16.929 67.892 16.517 67.0114 16.233C66.1307 15.9489 65.1648 15.8068 64.1136 15.8068C62.3902 15.8068 60.8229 16.2519 59.4119 17.142C58.0009 18.0322 56.8788 19.3438 56.0455 21.0767C55.2121 22.8097 54.7955 24.9356 54.7955 27.4545C54.7955 29.9735 55.2169 32.0994 56.0597 33.8324C56.9025 35.5653 58.0436 36.8769 59.483 37.767C60.9223 38.6572 62.5417 39.1023 64.3409 39.1023C66.0076 39.1023 67.4754 38.7472 68.7443 38.0369C70.0227 37.3172 71.017 36.304 71.7273 34.9972C72.447 33.6809 72.8068 32.1326 72.8068 30.3523L73.8864 30.5795H65.1364V27.4545H76.2159V30.5795C76.2159 32.9754 75.7045 35.0587 74.6818 36.8295C73.6686 38.6004 72.267 39.9735 70.4773 40.9489C68.697 41.9148 66.6515 42.3977 64.3409 42.3977C61.7652 42.3977 59.5019 41.7917 57.5511 40.5795C55.6098 39.3674 54.0947 37.6439 53.0057 35.4091C51.9261 33.1742 51.3864 30.5227 51.3864 27.4545C51.3864 25.1534 51.6941 23.0843 52.3097 21.2472C52.9347 19.4006 53.8153 17.8286 54.9517 16.5312C56.0881 15.2339 57.4328 14.2396 58.9858 13.5483C60.5388 12.857 62.2481 12.5114 64.1136 12.5114C65.6477 12.5114 67.0777 12.7434 68.4034 13.2074C69.7386 13.6619 70.9271 14.3106 71.9688 15.1534C73.0199 15.9867 73.8958 16.9858 74.5966 18.1506C75.2973 19.3059 75.7803 20.589 76.0455 22H72.4091ZM88.2152 42.5114C86.8326 42.5114 85.5779 42.2509 84.451 41.7301C83.3241 41.1998 82.4292 40.4375 81.7663 39.4432C81.1035 38.4394 80.772 37.2273 80.772 35.8068C80.772 34.5568 81.0182 33.5436 81.5107 32.767C82.0031 31.9811 82.6612 31.3655 83.4851 30.9205C84.3089 30.4754 85.218 30.1439 86.2124 29.9261C87.2161 29.6989 88.2247 29.5189 89.2379 29.3864C90.5637 29.2159 91.6385 29.0881 92.4624 29.0028C93.2957 28.9081 93.9018 28.7519 94.2805 28.5341C94.6688 28.3163 94.8629 27.9375 94.8629 27.3977V27.2841C94.8629 25.8826 94.4794 24.7936 93.7124 24.017C92.9548 23.2405 91.8042 22.8523 90.2607 22.8523C88.6603 22.8523 87.4055 23.2027 86.4964 23.9034C85.5874 24.6042 84.9482 25.3523 84.5788 26.1477L81.397 25.0114C81.9652 23.6856 82.7228 22.6534 83.6697 21.9148C84.6262 21.1667 85.6679 20.6458 86.7947 20.3523C87.9311 20.0492 89.0485 19.8977 90.147 19.8977C90.8478 19.8977 91.6527 19.983 92.5618 20.1534C93.4804 20.3144 94.3658 20.6506 95.218 21.1619C96.0798 21.6733 96.7947 22.4451 97.3629 23.4773C97.9311 24.5095 98.2152 25.892 98.2152 27.625V42H94.8629V39.0455H94.6925C94.4652 39.5189 94.0864 40.0256 93.5561 40.5653C93.0258 41.1051 92.3203 41.5644 91.4396 41.9432C90.5589 42.322 89.4841 42.5114 88.2152 42.5114ZM88.7266 39.5C90.0523 39.5 91.1697 39.2396 92.0788 38.7188C92.9974 38.1979 93.6887 37.5256 94.1527 36.7017C94.6262 35.8778 94.8629 35.0114 94.8629 34.1023V31.0341C94.7209 31.2045 94.4084 31.3608 93.9254 31.5028C93.4519 31.6354 92.9027 31.7538 92.2777 31.858C91.6622 31.9527 91.0608 32.0379 90.4737 32.1136C89.8961 32.1799 89.4273 32.2367 89.0675 32.2841C88.1963 32.3977 87.3819 32.5824 86.6243 32.8381C85.8762 33.0843 85.2701 33.4583 84.8061 33.9602C84.3516 34.4527 84.1243 35.125 84.1243 35.9773C84.1243 37.142 84.5552 38.0227 85.4169 38.6193C86.2881 39.2064 87.3913 39.5 88.7266 39.5ZM113.141 50.6364C111.521 50.6364 110.129 50.428 108.964 50.0114C107.8 49.6042 106.829 49.0644 106.053 48.392C105.286 47.7292 104.675 47.0189 104.22 46.2614L106.891 44.3864C107.194 44.7841 107.577 45.2386 108.041 45.75C108.505 46.2708 109.14 46.7206 109.945 47.0994C110.759 47.4877 111.824 47.6818 113.141 47.6818C114.902 47.6818 116.356 47.2557 117.501 46.4034C118.647 45.5511 119.22 44.2159 119.22 42.3977V37.9659H118.936C118.69 38.3636 118.339 38.8561 117.885 39.4432C117.44 40.0208 116.796 40.5369 115.953 40.9915C115.12 41.4366 113.993 41.6591 112.572 41.6591C110.811 41.6591 109.23 41.2424 107.828 40.4091C106.436 39.5758 105.333 38.3636 104.518 36.7727C103.714 35.1818 103.311 33.25 103.311 30.9773C103.311 28.7424 103.704 26.7964 104.49 25.1392C105.276 23.4725 106.37 22.1847 107.771 21.2756C109.173 20.357 110.792 19.8977 112.629 19.8977C114.05 19.8977 115.177 20.1345 116.01 20.608C116.853 21.072 117.497 21.6023 117.942 22.1989C118.396 22.786 118.747 23.2689 118.993 23.6477H119.334V20.1818H122.572V42.625C122.572 44.5 122.146 46.0246 121.294 47.1989C120.451 48.3826 119.315 49.2491 117.885 49.7983C116.464 50.357 114.883 50.6364 113.141 50.6364ZM113.027 38.6477C114.372 38.6477 115.508 38.34 116.436 37.7244C117.364 37.1089 118.07 36.2235 118.553 35.0682C119.036 33.9129 119.277 32.5303 119.277 30.9205C119.277 29.3485 119.04 27.9612 118.567 26.7585C118.093 25.5559 117.393 24.6136 116.464 23.9318C115.536 23.25 114.391 22.9091 113.027 22.9091C111.607 22.9091 110.423 23.2689 109.476 23.9886C108.538 24.7083 107.833 25.6742 107.359 26.8864C106.895 28.0985 106.663 29.4432 106.663 30.9205C106.663 32.4356 106.9 33.7756 107.374 34.9403C107.857 36.0956 108.567 37.0047 109.504 37.6676C110.451 38.321 111.625 38.6477 113.027 38.6477ZM132.061 28.875V42H128.709V20.1818H131.947V23.5909H132.232C132.743 22.483 133.519 21.5928 134.561 20.9205C135.603 20.2386 136.947 19.8977 138.595 19.8977C140.072 19.8977 141.365 20.2008 142.473 20.8068C143.581 21.4034 144.443 22.3125 145.058 23.5341C145.674 24.7462 145.982 26.2803 145.982 28.1364V42H142.629V28.3636C142.629 26.6496 142.184 25.3144 141.294 24.358C140.404 23.392 139.182 22.9091 137.629 22.9091C136.559 22.9091 135.603 23.1411 134.76 23.6051C133.927 24.0691 133.268 24.7462 132.786 25.6364C132.303 26.5265 132.061 27.6061 132.061 28.875ZM161.255 42.4545C159.153 42.4545 157.339 41.9905 155.815 41.0625C154.299 40.125 153.13 38.8182 152.306 37.142C151.492 35.4564 151.085 33.4962 151.085 31.2614C151.085 29.0265 151.492 27.0568 152.306 25.3523C153.13 23.6383 154.276 22.303 155.744 21.3466C157.221 20.3807 158.944 19.8977 160.914 19.8977C162.05 19.8977 163.173 20.0871 164.281 20.4659C165.388 20.8447 166.397 21.4602 167.306 22.3125C168.215 23.1553 168.94 24.2727 169.479 25.6648C170.019 27.0568 170.289 28.7708 170.289 30.8068V32.2273H153.471V29.3295H166.88C166.88 28.0985 166.634 27 166.141 26.0341C165.658 25.0682 164.967 24.3059 164.067 23.7472C163.177 23.1884 162.126 22.9091 160.914 22.9091C159.579 22.9091 158.424 23.2405 157.448 23.9034C156.482 24.5568 155.739 25.4091 155.218 26.4602C154.697 27.5114 154.437 28.6383 154.437 29.8409V31.7727C154.437 33.4205 154.721 34.8172 155.289 35.9631C155.867 37.0994 156.667 37.9659 157.69 38.5625C158.712 39.1496 159.901 39.4432 161.255 39.4432C162.136 39.4432 162.931 39.3201 163.641 39.0739C164.361 38.8182 164.981 38.4394 165.502 37.9375C166.023 37.4261 166.425 36.7917 166.71 36.0341L169.948 36.9432C169.607 38.0417 169.034 39.0076 168.229 39.8409C167.424 40.6648 166.43 41.3087 165.246 41.7727C164.063 42.2273 162.732 42.4545 161.255 42.4545ZM159.21 17.2273L162.675 10.6364H166.596L162.164 17.2273H159.21Z" fill="#3D5649"/>
</svg>
