<svg width="269" height="123" viewBox="0 0 269 123" fill="none" xmlns="http://www.w3.org/2000/svg">
<rect width="269" height="123" rx="19" fill="#FED8D9"/>
<path d="M54.0455 91V32.8182H61.0909V58.7273H92.1136V32.8182H99.1591V91H92.1136V64.9773H61.0909V91H54.0455ZM112.355 91V47.3636H119.06V91H112.355ZM115.764 40.0909C114.457 40.0909 113.33 39.6458 112.384 38.7557C111.455 37.8655 110.991 36.7955 110.991 35.5455C110.991 34.2955 111.455 33.2254 112.384 32.3352C113.33 31.4451 114.457 31 115.764 31C117.071 31 118.188 31.4451 119.116 32.3352C120.063 33.2254 120.537 34.2955 120.537 35.5455C120.537 36.7955 120.063 37.8655 119.116 38.7557C118.188 39.6458 117.071 40.0909 115.764 40.0909ZM148.953 108.273C145.714 108.273 142.93 107.856 140.601 107.023C138.271 106.208 136.33 105.129 134.777 103.784C133.243 102.458 132.021 101.038 131.112 99.5227L136.453 95.7727C137.059 96.5682 137.826 97.4773 138.754 98.5C139.682 99.5417 140.951 100.441 142.561 101.199C144.19 101.975 146.321 102.364 148.953 102.364C152.476 102.364 155.383 101.511 157.675 99.8068C159.966 98.1023 161.112 95.4318 161.112 91.7955V82.9318H160.544C160.052 83.7273 159.351 84.7121 158.442 85.8864C157.552 87.0417 156.264 88.0739 154.578 88.983C152.911 89.8731 150.658 90.3182 147.817 90.3182C144.294 90.3182 141.131 89.4848 138.328 87.8182C135.544 86.1515 133.338 83.7273 131.709 80.5455C130.099 77.3636 129.294 73.5 129.294 68.9545C129.294 64.4848 130.08 60.5928 131.652 57.2784C133.224 53.9451 135.411 51.3693 138.214 49.5511C141.018 47.714 144.256 46.7955 147.93 46.7955C150.771 46.7955 153.025 47.2689 154.692 48.2159C156.377 49.1439 157.665 50.2045 158.555 51.3977C159.464 52.572 160.165 53.5379 160.658 54.2955H161.339V47.3636H167.817V92.25C167.817 96 166.964 99.0492 165.26 101.398C163.574 103.765 161.302 105.498 158.442 106.597C155.601 107.714 152.438 108.273 148.953 108.273ZM148.726 84.2955C151.415 84.2955 153.688 83.6799 155.544 82.4489C157.4 81.2178 158.811 79.447 159.777 77.1364C160.743 74.8258 161.226 72.0606 161.226 68.8409C161.226 65.697 160.752 62.9223 159.805 60.517C158.858 58.1117 157.457 56.2273 155.601 54.8636C153.745 53.5 151.453 52.8182 148.726 52.8182C145.885 52.8182 143.518 53.5379 141.624 54.9773C139.749 56.4167 138.338 58.3485 137.391 60.7727C136.463 63.197 135.999 65.8864 135.999 68.8409C135.999 71.8712 136.472 74.5511 137.419 76.8807C138.385 79.1913 139.805 81.0095 141.68 82.3352C143.574 83.642 145.923 84.2955 148.726 84.2955ZM186.794 64.75V91H180.089V32.8182H186.794V54.1818H187.362C188.385 51.928 189.919 50.1383 191.964 48.8125C194.029 47.4678 196.775 46.7955 200.203 46.7955C203.177 46.7955 205.781 47.392 208.016 48.5852C210.25 49.7595 211.983 51.5682 213.214 54.0114C214.464 56.4356 215.089 59.5227 215.089 63.2727V91H208.385V63.7273C208.385 60.2614 207.485 57.5814 205.686 55.6875C203.906 53.7746 201.434 52.8182 198.271 52.8182C196.074 52.8182 194.105 53.2822 192.362 54.2102C190.639 55.1383 189.275 56.4924 188.271 58.2727C187.286 60.053 186.794 62.2121 186.794 64.75Z" fill="#AB7D7E"/>
</svg>
