<svg width="162" height="57" viewBox="0 0 162 57" fill="none" xmlns="http://www.w3.org/2000/svg">
<rect width="162" height="57" rx="28" fill="#E8E8E6"/>
<circle cx="27" cy="27" r="12" fill="#868283"/>
<path d="M52.5227 42V12.9091H56.0455V38.875H69.5682V42H52.5227ZM83.7159 42.4545C81.6136 42.4545 79.8002 41.9905 78.2756 41.0625C76.7604 40.125 75.5909 38.8182 74.767 37.142C73.9527 35.4564 73.5455 33.4962 73.5455 31.2614C73.5455 29.0265 73.9527 27.0568 74.767 25.3523C75.5909 23.6383 76.7367 22.303 78.2045 21.3466C79.6818 20.3807 81.4053 19.8977 83.375 19.8977C84.5114 19.8977 85.6335 20.0871 86.7415 20.4659C87.8494 20.8447 88.858 21.4602 89.767 22.3125C90.6761 23.1553 91.4006 24.2727 91.9403 25.6648C92.4801 27.0568 92.75 28.7708 92.75 30.8068V32.2273H75.9318V29.3295H89.3409C89.3409 28.0985 89.0947 27 88.6023 26.0341C88.1193 25.0682 87.428 24.3059 86.5284 23.7472C85.6383 23.1884 84.5871 22.9091 83.375 22.9091C82.0398 22.9091 80.8845 23.2405 79.9091 23.9034C78.9432 24.5568 78.1998 25.4091 77.679 26.4602C77.1581 27.5114 76.8977 28.6383 76.8977 29.8409V31.7727C76.8977 33.4205 77.1818 34.8172 77.75 35.9631C78.3277 37.0994 79.1278 37.9659 80.1506 38.5625C81.1733 39.1496 82.3617 39.4432 83.7159 39.4432C84.5966 39.4432 85.392 39.3201 86.1023 39.0739C86.822 38.8182 87.4422 38.4394 87.9631 37.9375C88.4839 37.4261 88.8864 36.7917 89.1705 36.0341L92.4091 36.9432C92.0682 38.0417 91.4953 39.0076 90.6903 39.8409C89.8854 40.6648 88.8911 41.3087 87.7074 41.7727C86.5237 42.2273 85.1932 42.4545 83.7159 42.4545ZM104.27 42.5114C102.887 42.5114 101.633 42.2509 100.506 41.7301C99.3788 41.1998 98.4839 40.4375 97.821 39.4432C97.1581 38.4394 96.8267 37.2273 96.8267 35.8068C96.8267 34.5568 97.0729 33.5436 97.5653 32.767C98.0578 31.9811 98.7159 31.3655 99.5398 30.9205C100.364 30.4754 101.273 30.1439 102.267 29.9261C103.271 29.6989 104.279 29.5189 105.293 29.3864C106.618 29.2159 107.693 29.0881 108.517 29.0028C109.35 28.9081 109.956 28.7519 110.335 28.5341C110.723 28.3163 110.918 27.9375 110.918 27.3977V27.2841C110.918 25.8826 110.534 24.7936 109.767 24.017C109.009 23.2405 107.859 22.8523 106.315 22.8523C104.715 22.8523 103.46 23.2027 102.551 23.9034C101.642 24.6042 101.003 25.3523 100.634 26.1477L97.4517 25.0114C98.0199 23.6856 98.7775 22.6534 99.7244 21.9148C100.681 21.1667 101.723 20.6458 102.849 20.3523C103.986 20.0492 105.103 19.8977 106.202 19.8977C106.902 19.8977 107.707 19.983 108.616 20.1534C109.535 20.3144 110.42 20.6506 111.273 21.1619C112.134 21.6733 112.849 22.4451 113.418 23.4773C113.986 24.5095 114.27 25.892 114.27 27.625V42H110.918V39.0455H110.747C110.52 39.5189 110.141 40.0256 109.611 40.5653C109.08 41.1051 108.375 41.5644 107.494 41.9432C106.614 42.322 105.539 42.5114 104.27 42.5114ZM104.781 39.5C106.107 39.5 107.224 39.2396 108.134 38.7188C109.052 38.1979 109.743 37.5256 110.207 36.7017C110.681 35.8778 110.918 35.0114 110.918 34.1023V31.0341C110.776 31.2045 110.463 31.3608 109.98 31.5028C109.507 31.6354 108.957 31.7538 108.332 31.858C107.717 31.9527 107.116 32.0379 106.528 32.1136C105.951 32.1799 105.482 32.2367 105.122 32.2841C104.251 32.3977 103.437 32.5824 102.679 32.8381C101.931 33.0843 101.325 33.4583 100.861 33.9602C100.406 34.4527 100.179 35.125 100.179 35.9773C100.179 37.142 100.61 38.0227 101.472 38.6193C102.343 39.2064 103.446 39.5 104.781 39.5ZM128.627 42.4545C126.809 42.4545 125.204 41.9953 123.812 41.0767C122.42 40.1487 121.331 38.8419 120.545 37.1562C119.759 35.4612 119.366 33.4583 119.366 31.1477C119.366 28.8561 119.759 26.8674 120.545 25.1818C121.331 23.4962 122.424 22.1941 123.826 21.2756C125.228 20.357 126.847 19.8977 128.684 19.8977C130.104 19.8977 131.227 20.1345 132.05 20.608C132.884 21.072 133.518 21.6023 133.954 22.1989C134.399 22.786 134.745 23.2689 134.991 23.6477H135.275V12.9091H138.627V42H135.388V38.6477H134.991C134.745 39.0455 134.394 39.5473 133.94 40.1534C133.485 40.75 132.836 41.285 131.994 41.7585C131.151 42.2225 130.029 42.4545 128.627 42.4545ZM129.082 39.4432C130.426 39.4432 131.563 39.0928 132.491 38.392C133.419 37.6818 134.124 36.7017 134.607 35.4517C135.09 34.1922 135.332 32.7386 135.332 31.0909C135.332 29.4621 135.095 28.0369 134.621 26.8153C134.148 25.5843 133.447 24.6278 132.519 23.946C131.591 23.2547 130.445 22.9091 129.082 22.9091C127.661 22.9091 126.478 23.2737 125.531 24.0028C124.593 24.7225 123.888 25.7027 123.414 26.9432C122.95 28.1742 122.718 29.5568 122.718 31.0909C122.718 32.6439 122.955 34.0549 123.428 35.3239C123.911 36.5833 124.621 37.5871 125.559 38.3352C126.506 39.0739 127.68 39.4432 129.082 39.4432Z" fill="black"/>
</svg>
