<svg width="208" height="123" viewBox="0 0 208 123" fill="none" xmlns="http://www.w3.org/2000/svg">
<rect width="208" height="123" rx="19" fill="#E3F1E4"/>
<path d="M32.0455 91V32.8182H39.0909V84.75H66.1364V91H32.0455ZM93.8636 91.9091C89.9242 91.9091 86.4678 90.9716 83.4943 89.0966C80.5398 87.2216 78.2292 84.5985 76.5625 81.2273C74.9148 77.8561 74.0909 73.9167 74.0909 69.4091C74.0909 64.8636 74.9148 60.8958 76.5625 57.5057C78.2292 54.1155 80.5398 51.483 83.4943 49.608C86.4678 47.733 89.9242 46.7955 93.8636 46.7955C97.803 46.7955 101.25 47.733 104.205 49.608C107.178 51.483 109.489 54.1155 111.136 57.5057C112.803 60.8958 113.636 64.8636 113.636 69.4091C113.636 73.9167 112.803 77.8561 111.136 81.2273C109.489 84.5985 107.178 87.2216 104.205 89.0966C101.25 90.9716 97.803 91.9091 93.8636 91.9091ZM93.8636 85.8864C96.8561 85.8864 99.3182 85.1193 101.25 83.5852C103.182 82.0511 104.612 80.0341 105.54 77.5341C106.468 75.0341 106.932 72.3258 106.932 69.4091C106.932 66.4924 106.468 63.7746 105.54 61.2557C104.612 58.7367 103.182 56.7008 101.25 55.1477C99.3182 53.5947 96.8561 52.8182 93.8636 52.8182C90.8712 52.8182 88.4091 53.5947 86.4773 55.1477C84.5455 56.7008 83.1155 58.7367 82.1875 61.2557C81.2595 63.7746 80.7955 66.4924 80.7955 69.4091C80.7955 72.3258 81.2595 75.0341 82.1875 77.5341C83.1155 80.0341 84.5455 82.0511 86.4773 83.5852C88.4091 85.1193 90.8712 85.8864 93.8636 85.8864ZM132.273 91L118.977 47.3636H126.023L135.455 80.7727H135.909L145.227 47.3636H152.386L161.591 80.6591H162.045L171.477 47.3636H178.523L165.227 91H158.636L149.091 57.4773H148.409L138.864 91H132.273Z" fill="#45594C"/>
</svg>
