<svg width="295" height="57" viewBox="0 0 295 57" fill="none" xmlns="http://www.w3.org/2000/svg">
<rect width="295" height="57" rx="28" fill="#E8E8E6"/>
<circle cx="27" cy="27" r="12" fill="#868283"/>
<path d="M75.5909 12.9091V42H72.1818L56.3295 19.1591H56.0455V42H52.5227V12.9091H55.9318L71.8409 35.8068H72.125V12.9091H75.5909ZM91.3331 42.4545C89.2308 42.4545 87.4174 41.9905 85.8928 41.0625C84.3776 40.125 83.2081 38.8182 82.3842 37.142C81.5698 35.4564 81.1626 33.4962 81.1626 31.2614C81.1626 29.0265 81.5698 27.0568 82.3842 25.3523C83.2081 23.6383 84.3539 22.303 85.8217 21.3466C87.299 20.3807 89.0225 19.8977 90.9922 19.8977C92.1286 19.8977 93.2507 20.0871 94.3587 20.4659C95.4666 20.8447 96.4751 21.4602 97.3842 22.3125C98.2933 23.1553 99.0178 24.2727 99.5575 25.6648C100.097 27.0568 100.367 28.7708 100.367 30.8068V32.2273H83.549V29.3295H96.9581C96.9581 28.0985 96.7119 27 96.2195 26.0341C95.7365 25.0682 95.0452 24.3059 94.1456 23.7472C93.2554 23.1884 92.2043 22.9091 90.9922 22.9091C89.657 22.9091 88.5017 23.2405 87.5263 23.9034C86.5604 24.5568 85.817 25.4091 85.2962 26.4602C84.7753 27.5114 84.5149 28.6383 84.5149 29.8409V31.7727C84.5149 33.4205 84.799 34.8172 85.3672 35.9631C85.9448 37.0994 86.745 37.9659 87.7678 38.5625C88.7905 39.1496 89.9789 39.4432 91.3331 39.4432C92.2138 39.4432 93.0092 39.3201 93.7195 39.0739C94.4392 38.8182 95.0594 38.4394 95.5803 37.9375C96.1011 37.4261 96.5036 36.7917 96.7876 36.0341L100.026 36.9432C99.6854 38.0417 99.1125 39.0076 98.3075 39.8409C97.5026 40.6648 96.5083 41.3087 95.3246 41.7727C94.1409 42.2273 92.8104 42.4545 91.3331 42.4545ZM89.2876 17.2273L92.7536 10.6364H96.674L92.2422 17.2273H89.2876ZM114.273 50.6364C112.654 50.6364 111.262 50.428 110.097 50.0114C108.933 49.6042 107.962 49.0644 107.185 48.392C106.418 47.7292 105.808 47.0189 105.353 46.2614L108.023 44.3864C108.326 44.7841 108.71 45.2386 109.174 45.75C109.638 46.2708 110.272 46.7206 111.077 47.0994C111.892 47.4877 112.957 47.6818 114.273 47.6818C116.035 47.6818 117.488 47.2557 118.634 46.4034C119.78 45.5511 120.353 44.2159 120.353 42.3977V37.9659H120.069C119.823 38.3636 119.472 38.8561 119.018 39.4432C118.573 40.0208 117.929 40.5369 117.086 40.9915C116.253 41.4366 115.126 41.6591 113.705 41.6591C111.944 41.6591 110.362 41.2424 108.961 40.4091C107.569 39.5758 106.466 38.3636 105.651 36.7727C104.846 35.1818 104.444 33.25 104.444 30.9773C104.444 28.7424 104.837 26.7964 105.623 25.1392C106.409 23.4725 107.503 22.1847 108.904 21.2756C110.306 20.357 111.925 19.8977 113.762 19.8977C115.183 19.8977 116.309 20.1345 117.143 20.608C117.986 21.072 118.629 21.6023 119.075 22.1989C119.529 22.786 119.879 23.2689 120.126 23.6477H120.467V20.1818H123.705V42.625C123.705 44.5 123.279 46.0246 122.427 47.1989C121.584 48.3826 120.448 49.2491 119.018 49.7983C117.597 50.357 116.016 50.6364 114.273 50.6364ZM114.16 38.6477C115.504 38.6477 116.641 38.34 117.569 37.7244C118.497 37.1089 119.202 36.2235 119.685 35.0682C120.168 33.9129 120.41 32.5303 120.41 30.9205C120.41 29.3485 120.173 27.9612 119.7 26.7585C119.226 25.5559 118.525 24.6136 117.597 23.9318C116.669 23.25 115.523 22.9091 114.16 22.9091C112.739 22.9091 111.556 23.2689 110.609 23.9886C109.671 24.7083 108.966 25.6742 108.492 26.8864C108.028 28.0985 107.796 29.4432 107.796 30.9205C107.796 32.4356 108.033 33.7756 108.506 34.9403C108.989 36.0956 109.7 37.0047 110.637 37.6676C111.584 38.321 112.758 38.6477 114.16 38.6477ZM138.705 42.4545C136.736 42.4545 135.007 41.9858 133.521 41.0483C132.043 40.1108 130.888 38.7992 130.055 37.1136C129.231 35.428 128.819 33.4583 128.819 31.2045C128.819 28.9318 129.231 26.9479 130.055 25.2528C130.888 23.5578 132.043 22.2415 133.521 21.304C135.007 20.3665 136.736 19.8977 138.705 19.8977C140.675 19.8977 142.398 20.3665 143.876 21.304C145.362 22.2415 146.518 23.5578 147.342 25.2528C148.175 26.9479 148.592 28.9318 148.592 31.2045C148.592 33.4583 148.175 35.428 147.342 37.1136C146.518 38.7992 145.362 40.1108 143.876 41.0483C142.398 41.9858 140.675 42.4545 138.705 42.4545ZM138.705 39.4432C140.201 39.4432 141.433 39.0597 142.398 38.2926C143.364 37.5256 144.079 36.517 144.543 35.267C145.007 34.017 145.239 32.6629 145.239 31.2045C145.239 29.7462 145.007 28.3873 144.543 27.1278C144.079 25.8684 143.364 24.8504 142.398 24.0739C141.433 23.2973 140.201 22.9091 138.705 22.9091C137.209 22.9091 135.978 23.2973 135.012 24.0739C134.046 24.8504 133.331 25.8684 132.867 27.1278C132.403 28.3873 132.171 29.7462 132.171 31.2045C132.171 32.6629 132.403 34.017 132.867 35.267C133.331 36.517 134.046 37.5256 135.012 38.2926C135.978 39.0597 137.209 39.4432 138.705 39.4432ZM162.572 42.4545C160.527 42.4545 158.766 41.9716 157.288 41.0057C155.811 40.0398 154.675 38.7093 153.879 37.0142C153.084 35.3191 152.686 33.3826 152.686 31.2045C152.686 28.9886 153.093 27.0331 153.908 25.3381C154.732 23.6335 155.877 22.303 157.345 21.3466C158.822 20.3807 160.546 19.8977 162.516 19.8977C164.05 19.8977 165.432 20.1818 166.663 20.75C167.894 21.3182 168.903 22.1136 169.689 23.1364C170.475 24.1591 170.963 25.3523 171.152 26.7159H167.8C167.544 25.7216 166.976 24.8409 166.095 24.0739C165.224 23.2973 164.05 22.9091 162.572 22.9091C161.266 22.9091 160.12 23.25 159.135 23.9318C158.16 24.6042 157.397 25.5559 156.848 26.7869C156.308 28.0085 156.038 29.4432 156.038 31.0909C156.038 32.7765 156.304 34.2443 156.834 35.4943C157.374 36.7443 158.131 37.715 159.107 38.4062C160.091 39.0975 161.247 39.4432 162.572 39.4432C163.444 39.4432 164.234 39.2917 164.945 38.9886C165.655 38.6856 166.256 38.25 166.749 37.6818C167.241 37.1136 167.591 36.4318 167.8 35.6364H171.152C170.963 36.9242 170.494 38.0843 169.746 39.1165C169.007 40.1392 168.027 40.9536 166.805 41.5597C165.593 42.1562 164.182 42.4545 162.572 42.4545ZM176.053 42V20.1818H179.405V42H176.053ZM177.757 16.5455C177.104 16.5455 176.54 16.3229 176.067 15.8778C175.603 15.4328 175.371 14.8977 175.371 14.2727C175.371 13.6477 175.603 13.1127 176.067 12.6676C176.54 12.2225 177.104 12 177.757 12C178.411 12 178.969 12.2225 179.433 12.6676C179.907 13.1127 180.143 13.6477 180.143 14.2727C180.143 14.8977 179.907 15.4328 179.433 15.8778C178.969 16.3229 178.411 16.5455 177.757 16.5455ZM191.965 42.5114C190.583 42.5114 189.328 42.2509 188.201 41.7301C187.074 41.1998 186.179 40.4375 185.516 39.4432C184.853 38.4394 184.522 37.2273 184.522 35.8068C184.522 34.5568 184.768 33.5436 185.261 32.767C185.753 31.9811 186.411 31.3655 187.235 30.9205C188.059 30.4754 188.968 30.1439 189.962 29.9261C190.966 29.6989 191.975 29.5189 192.988 29.3864C194.314 29.2159 195.388 29.0881 196.212 29.0028C197.046 28.9081 197.652 28.7519 198.031 28.5341C198.419 28.3163 198.613 27.9375 198.613 27.3977V27.2841C198.613 25.8826 198.229 24.7936 197.462 24.017C196.705 23.2405 195.554 22.8523 194.011 22.8523C192.41 22.8523 191.156 23.2027 190.246 23.9034C189.337 24.6042 188.698 25.3523 188.329 26.1477L185.147 25.0114C185.715 23.6856 186.473 22.6534 187.42 21.9148C188.376 21.1667 189.418 20.6458 190.545 20.3523C191.681 20.0492 192.799 19.8977 193.897 19.8977C194.598 19.8977 195.403 19.983 196.312 20.1534C197.23 20.3144 198.116 20.6506 198.968 21.1619C199.83 21.6733 200.545 22.4451 201.113 23.4773C201.681 24.5095 201.965 25.892 201.965 27.625V42H198.613V39.0455H198.442C198.215 39.5189 197.836 40.0256 197.306 40.5653C196.776 41.1051 196.07 41.5644 195.19 41.9432C194.309 42.322 193.234 42.5114 191.965 42.5114ZM192.477 39.5C193.802 39.5 194.92 39.2396 195.829 38.7188C196.747 38.1979 197.439 37.5256 197.903 36.7017C198.376 35.8778 198.613 35.0114 198.613 34.1023V31.0341C198.471 31.2045 198.158 31.3608 197.675 31.5028C197.202 31.6354 196.653 31.7538 196.028 31.858C195.412 31.9527 194.811 32.0379 194.224 32.1136C193.646 32.1799 193.177 32.2367 192.817 32.2841C191.946 32.3977 191.132 32.5824 190.374 32.8381C189.626 33.0843 189.02 33.4583 188.556 33.9602C188.102 34.4527 187.874 35.125 187.874 35.9773C187.874 37.142 188.305 38.0227 189.167 38.6193C190.038 39.2064 191.141 39.5 192.477 39.5ZM217.572 20.1818V23.0227H206.266V20.1818H217.572ZM209.561 14.9545H212.913V35.75C212.913 36.697 213.051 37.4072 213.325 37.8807C213.609 38.3447 213.969 38.6572 214.405 38.8182C214.85 38.9697 215.319 39.0455 215.811 39.0455C216.18 39.0455 216.483 39.0265 216.72 38.9886C216.957 38.9413 217.146 38.9034 217.288 38.875L217.97 41.8864C217.743 41.9716 217.426 42.0568 217.018 42.142C216.611 42.2367 216.095 42.2841 215.47 42.2841C214.523 42.2841 213.595 42.0805 212.686 41.6733C211.786 41.2661 211.038 40.6458 210.442 39.8125C209.855 38.9792 209.561 37.928 209.561 36.6591V14.9545ZM222.615 42V20.1818H225.967V42H222.615ZM224.32 16.5455C223.666 16.5455 223.103 16.3229 222.629 15.8778C222.165 15.4328 221.933 14.8977 221.933 14.2727C221.933 13.6477 222.165 13.1127 222.629 12.6676C223.103 12.2225 223.666 12 224.32 12C224.973 12 225.532 12.2225 225.996 12.6676C226.469 13.1127 226.706 13.6477 226.706 14.2727C226.706 14.8977 226.469 15.4328 225.996 15.8778C225.532 16.3229 224.973 16.5455 224.32 16.5455ZM240.971 42.4545C239.001 42.4545 237.273 41.9858 235.786 41.0483C234.309 40.1108 233.154 38.7992 232.32 37.1136C231.496 35.428 231.085 33.4583 231.085 31.2045C231.085 28.9318 231.496 26.9479 232.32 25.2528C233.154 23.5578 234.309 22.2415 235.786 21.304C237.273 20.3665 239.001 19.8977 240.971 19.8977C242.941 19.8977 244.664 20.3665 246.141 21.304C247.628 22.2415 248.783 23.5578 249.607 25.2528C250.441 26.9479 250.857 28.9318 250.857 31.2045C250.857 33.4583 250.441 35.428 249.607 37.1136C248.783 38.7992 247.628 40.1108 246.141 41.0483C244.664 41.9858 242.941 42.4545 240.971 42.4545ZM240.971 39.4432C242.467 39.4432 243.698 39.0597 244.664 38.2926C245.63 37.5256 246.345 36.517 246.809 35.267C247.273 34.017 247.505 32.6629 247.505 31.2045C247.505 29.7462 247.273 28.3873 246.809 27.1278C246.345 25.8684 245.63 24.8504 244.664 24.0739C243.698 23.2973 242.467 22.9091 240.971 22.9091C239.475 22.9091 238.244 23.2973 237.278 24.0739C236.312 24.8504 235.597 25.8684 235.133 27.1278C234.669 28.3873 234.437 29.7462 234.437 31.2045C234.437 32.6629 234.669 34.017 235.133 35.267C235.597 36.517 236.312 37.5256 237.278 38.2926C238.244 39.0597 239.475 39.4432 240.971 39.4432ZM259.327 28.875V42H255.974V20.1818H259.213V23.5909H259.497C260.009 22.483 260.785 21.5928 261.827 20.9205C262.868 20.2386 264.213 19.8977 265.861 19.8977C267.338 19.8977 268.631 20.2008 269.739 20.8068C270.847 21.4034 271.708 22.3125 272.324 23.5341C272.939 24.7462 273.247 26.2803 273.247 28.1364V42H269.895V28.3636C269.895 26.6496 269.45 25.3144 268.56 24.358C267.67 23.392 266.448 22.9091 264.895 22.9091C263.825 22.9091 262.868 23.1411 262.026 23.6051C261.192 24.0691 260.534 24.7462 260.051 25.6364C259.568 26.5265 259.327 27.6061 259.327 28.875Z" fill="black"/>
</svg>
