<svg width="262" height="57" viewBox="0 0 262 57" fill="none" xmlns="http://www.w3.org/2000/svg">
<rect width="262" height="57" rx="28" fill="#FDF7DF"/>
<circle cx="27" cy="27" r="12" fill="#D0B764"/>
<path d="M68.4318 20.1818C68.2614 18.7424 67.5701 17.625 66.358 16.8295C65.1458 16.0341 63.6591 15.6364 61.8977 15.6364C60.6098 15.6364 59.483 15.8447 58.517 16.2614C57.5606 16.678 56.8125 17.2509 56.2727 17.9801C55.7424 18.7093 55.4773 19.5379 55.4773 20.4659C55.4773 21.2424 55.6619 21.91 56.0312 22.4688C56.41 23.018 56.893 23.4773 57.4801 23.8466C58.0672 24.2064 58.6828 24.5047 59.3267 24.7415C59.9706 24.9687 60.5625 25.1534 61.1023 25.2955L64.0568 26.0909C64.8144 26.2898 65.6572 26.5644 66.5852 26.9148C67.5227 27.2652 68.4176 27.7434 69.2699 28.3494C70.1316 28.946 70.8419 29.7131 71.4006 30.6506C71.9593 31.5881 72.2386 32.7386 72.2386 34.1023C72.2386 35.6742 71.8267 37.0947 71.0028 38.3636C70.1884 39.6326 68.9953 40.6411 67.4233 41.3892C65.8608 42.1373 63.9621 42.5114 61.7273 42.5114C59.6439 42.5114 57.84 42.1752 56.3153 41.5028C54.8002 40.8305 53.607 39.893 52.7358 38.6903C51.8741 37.4877 51.3864 36.0909 51.2727 34.5H54.9091C55.0038 35.5985 55.3731 36.5076 56.017 37.2273C56.6705 37.9375 57.4943 38.4678 58.4886 38.8182C59.4924 39.1591 60.572 39.3295 61.7273 39.3295C63.072 39.3295 64.2794 39.1117 65.3494 38.6761C66.4195 38.2311 67.267 37.6155 67.892 36.8295C68.517 36.0341 68.8295 35.1061 68.8295 34.0455C68.8295 33.0795 68.5597 32.2936 68.0199 31.6875C67.4801 31.0814 66.7699 30.589 65.8892 30.2102C65.0085 29.8314 64.0568 29.5 63.0341 29.2159L59.4545 28.1932C57.1818 27.5398 55.3826 26.607 54.0568 25.3949C52.7311 24.1828 52.0682 22.5966 52.0682 20.6364C52.0682 19.0076 52.5085 17.5871 53.3892 16.375C54.2794 15.1534 55.4725 14.2064 56.9688 13.5341C58.4744 12.8523 60.1553 12.5114 62.0114 12.5114C63.8864 12.5114 65.553 12.8475 67.0114 13.5199C68.4697 14.1828 69.625 15.0919 70.4773 16.2472C71.339 17.4025 71.7936 18.714 71.8409 20.1818H68.4318ZM83.9964 42.5114C82.6139 42.5114 81.3591 42.2509 80.2322 41.7301C79.1054 41.1998 78.2105 40.4375 77.5476 39.4432C76.8847 38.4394 76.5533 37.2273 76.5533 35.8068C76.5533 34.5568 76.7995 33.5436 77.2919 32.767C77.7843 31.9811 78.4425 31.3655 79.2663 30.9205C80.0902 30.4754 80.9993 30.1439 81.9936 29.9261C82.9974 29.6989 84.0059 29.5189 85.0192 29.3864C86.3449 29.2159 87.4197 29.0881 88.2436 29.0028C89.0769 28.9081 89.683 28.7519 90.0618 28.5341C90.45 28.3163 90.6442 27.9375 90.6442 27.3977V27.2841C90.6442 25.8826 90.2607 24.7936 89.4936 24.017C88.736 23.2405 87.5855 22.8523 86.0419 22.8523C84.4415 22.8523 83.1868 23.2027 82.2777 23.9034C81.3686 24.6042 80.7294 25.3523 80.3601 26.1477L77.1783 25.0114C77.7464 23.6856 78.504 22.6534 79.451 21.9148C80.4074 21.1667 81.4491 20.6458 82.576 20.3523C83.7124 20.0492 84.8298 19.8977 85.9283 19.8977C86.629 19.8977 87.4339 19.983 88.343 20.1534C89.2616 20.3144 90.147 20.6506 90.9993 21.1619C91.861 21.6733 92.576 22.4451 93.1442 23.4773C93.7124 24.5095 93.9964 25.892 93.9964 27.625V42H90.6442V39.0455H90.4737C90.2464 39.5189 89.8677 40.0256 89.3374 40.5653C88.8071 41.1051 88.1016 41.5644 87.2209 41.9432C86.3402 42.322 85.2654 42.5114 83.9964 42.5114ZM84.5078 39.5C85.8336 39.5 86.951 39.2396 87.8601 38.7188C88.7786 38.1979 89.4699 37.5256 89.9339 36.7017C90.4074 35.8778 90.6442 35.0114 90.6442 34.1023V31.0341C90.5021 31.2045 90.1896 31.3608 89.7067 31.5028C89.2332 31.6354 88.6839 31.7538 88.0589 31.858C87.4434 31.9527 86.8421 32.0379 86.255 32.1136C85.6773 32.1799 85.2086 32.2367 84.8487 32.2841C83.9775 32.3977 83.1631 32.5824 82.4055 32.8381C81.6574 33.0843 81.0514 33.4583 80.5874 33.9602C80.1328 34.4527 79.9055 35.125 79.9055 35.9773C79.9055 37.142 80.3364 38.0227 81.1982 38.6193C82.0694 39.2064 83.1726 39.5 84.5078 39.5ZM103.467 28.875V42H100.115V20.1818H103.354V23.5909H103.638C104.149 22.483 104.926 21.5928 105.967 20.9205C107.009 20.2386 108.354 19.8977 110.001 19.8977C111.479 19.8977 112.771 20.2008 113.879 20.8068C114.987 21.4034 115.849 22.3125 116.464 23.5341C117.08 24.7462 117.388 26.2803 117.388 28.1364V42H114.036V28.3636C114.036 26.6496 113.59 25.3144 112.7 24.358C111.81 23.392 110.589 22.9091 109.036 22.9091C107.965 22.9091 107.009 23.1411 106.166 23.6051C105.333 24.0691 104.675 24.7462 104.192 25.6364C103.709 26.5265 103.467 27.6061 103.467 28.875ZM138.968 25.0682L135.957 25.9205C135.767 25.4186 135.488 24.9309 135.119 24.4574C134.759 23.9744 134.266 23.5767 133.641 23.2642C133.016 22.9517 132.216 22.7955 131.241 22.7955C129.906 22.7955 128.793 23.1032 127.903 23.7188C127.022 24.3248 126.582 25.0966 126.582 26.0341C126.582 26.8674 126.885 27.5256 127.491 28.0085C128.097 28.4915 129.044 28.8939 130.332 29.2159L133.57 30.0114C135.521 30.4848 136.975 31.2093 137.931 32.1847C138.888 33.1506 139.366 34.3958 139.366 35.9205C139.366 37.1705 139.006 38.2879 138.286 39.2727C137.576 40.2576 136.582 41.0341 135.303 41.6023C134.025 42.1705 132.538 42.4545 130.843 42.4545C128.618 42.4545 126.776 41.9716 125.317 41.0057C123.859 40.0398 122.936 38.6288 122.548 36.7727L125.729 35.9773C126.032 37.1515 126.605 38.0322 127.448 38.6193C128.3 39.2064 129.413 39.5 130.786 39.5C132.349 39.5 133.589 39.1686 134.508 38.5057C135.436 37.8333 135.9 37.0284 135.9 36.0909C135.9 35.3333 135.635 34.6989 135.104 34.1875C134.574 33.6667 133.76 33.2784 132.661 33.0227L129.025 32.1705C127.027 31.697 125.559 30.9631 124.621 29.9688C123.693 28.965 123.229 27.7102 123.229 26.2045C123.229 24.9735 123.575 23.8845 124.266 22.9375C124.967 21.9905 125.919 21.2472 127.121 20.7074C128.334 20.1676 129.707 19.8977 131.241 19.8977C133.4 19.8977 135.095 20.3712 136.326 21.3182C137.567 22.2652 138.447 23.5152 138.968 25.0682ZM171.116 25.0682L168.105 25.9205C167.916 25.4186 167.636 24.9309 167.267 24.4574C166.907 23.9744 166.415 23.5767 165.79 23.2642C165.165 22.9517 164.365 22.7955 163.389 22.7955C162.054 22.7955 160.941 23.1032 160.051 23.7188C159.17 24.3248 158.73 25.0966 158.73 26.0341C158.73 26.8674 159.033 27.5256 159.639 28.0085C160.245 28.4915 161.192 28.8939 162.48 29.2159L165.719 30.0114C167.67 30.4848 169.123 31.2093 170.08 32.1847C171.036 33.1506 171.514 34.3958 171.514 35.9205C171.514 37.1705 171.154 38.2879 170.435 39.2727C169.724 40.2576 168.73 41.0341 167.452 41.6023C166.173 42.1705 164.687 42.4545 162.991 42.4545C160.766 42.4545 158.924 41.9716 157.466 41.0057C156.008 40.0398 155.084 38.6288 154.696 36.7727L157.878 35.9773C158.181 37.1515 158.754 38.0322 159.597 38.6193C160.449 39.2064 161.562 39.5 162.935 39.5C164.497 39.5 165.738 39.1686 166.656 38.5057C167.584 37.8333 168.048 37.0284 168.048 36.0909C168.048 35.3333 167.783 34.6989 167.253 34.1875C166.723 33.6667 165.908 33.2784 164.81 33.0227L161.173 32.1705C159.175 31.697 157.707 30.9631 156.77 29.9688C155.842 28.965 155.378 27.7102 155.378 26.2045C155.378 24.9735 155.723 23.8845 156.415 22.9375C157.116 21.9905 158.067 21.2472 159.27 20.7074C160.482 20.1676 161.855 19.8977 163.389 19.8977C165.548 19.8977 167.243 20.3712 168.474 21.3182C169.715 22.2652 170.596 23.5152 171.116 25.0682ZM190.31 33.0795V20.1818H193.663V42H190.31V38.3068H190.083C189.572 39.4148 188.776 40.357 187.697 41.1335C186.617 41.9006 185.254 42.2841 183.606 42.2841C182.242 42.2841 181.03 41.9858 179.969 41.3892C178.909 40.7831 178.076 39.8741 177.469 38.6619C176.863 37.4403 176.56 35.9015 176.56 34.0455V20.1818H179.913V33.8182C179.913 35.4091 180.358 36.678 181.248 37.625C182.147 38.572 183.293 39.0455 184.685 39.0455C185.519 39.0455 186.366 38.8324 187.228 38.4062C188.099 37.9801 188.828 37.3267 189.415 36.446C190.012 35.5653 190.31 34.4432 190.31 33.0795ZM199.803 42V20.1818H203.155V42H199.803ZM201.507 16.5455C200.854 16.5455 200.29 16.3229 199.817 15.8778C199.353 15.4328 199.121 14.8977 199.121 14.2727C199.121 13.6477 199.353 13.1127 199.817 12.6676C200.29 12.2225 200.854 12 201.507 12C202.161 12 202.719 12.2225 203.183 12.6676C203.657 13.1127 203.893 13.6477 203.893 14.2727C203.893 14.8977 203.657 15.4328 203.183 15.8778C202.719 16.3229 202.161 16.5455 201.507 16.5455ZM218.783 20.1818V23.0227H207.477V20.1818H218.783ZM210.772 14.9545H214.124V35.75C214.124 36.697 214.262 37.4072 214.536 37.8807C214.82 38.3447 215.18 38.6572 215.616 38.8182C216.061 38.9697 216.53 39.0455 217.022 39.0455C217.391 39.0455 217.694 39.0265 217.931 38.9886C218.168 38.9413 218.357 38.9034 218.499 38.875L219.181 41.8864C218.954 41.9716 218.637 42.0568 218.229 42.142C217.822 42.2367 217.306 42.2841 216.681 42.2841C215.734 42.2841 214.806 42.0805 213.897 41.6733C212.997 41.2661 212.249 40.6458 211.653 39.8125C211.066 38.9792 210.772 37.928 210.772 36.6591V14.9545ZM232.739 42.4545C230.637 42.4545 228.824 41.9905 227.299 41.0625C225.784 40.125 224.614 38.8182 223.79 37.142C222.976 35.4564 222.569 33.4962 222.569 31.2614C222.569 29.0265 222.976 27.0568 223.79 25.3523C224.614 23.6383 225.76 22.303 227.228 21.3466C228.705 20.3807 230.429 19.8977 232.398 19.8977C233.535 19.8977 234.657 20.0871 235.765 20.4659C236.873 20.8447 237.881 21.4602 238.79 22.3125C239.7 23.1553 240.424 24.2727 240.964 25.6648C241.504 27.0568 241.773 28.7708 241.773 30.8068V32.2273H224.955V29.3295H238.364C238.364 28.0985 238.118 27 237.626 26.0341C237.143 25.0682 236.451 24.3059 235.552 23.7472C234.662 23.1884 233.611 22.9091 232.398 22.9091C231.063 22.9091 229.908 23.2405 228.933 23.9034C227.967 24.5568 227.223 25.4091 226.702 26.4602C226.182 27.5114 225.921 28.6383 225.921 29.8409V31.7727C225.921 33.4205 226.205 34.8172 226.773 35.9631C227.351 37.0994 228.151 37.9659 229.174 38.5625C230.197 39.1496 231.385 39.4432 232.739 39.4432C233.62 39.4432 234.415 39.3201 235.126 39.0739C235.845 38.8182 236.466 38.4394 236.987 37.9375C237.507 37.4261 237.91 36.7917 238.194 36.0341L241.433 36.9432C241.092 38.0417 240.519 39.0076 239.714 39.8409C238.909 40.6648 237.915 41.3087 236.731 41.7727C235.547 42.2273 234.217 42.4545 232.739 42.4545Z" fill="#AB9756"/>
</svg>
